<svg width="91" height="91" viewBox="0 0 91 91" fill="none" xmlns="http://www.w3.org/2000/svg">
<path d="M1.5 1.5H89.2162V45.3581V89.2162H1.5V1.5Z" stroke="black" stroke-width="3"/>
<path d="M70.1931 48.7552C74.9606 48.7552 78.7641 44.8063 78.7641 40.0117C78.7641 35.2171 74.9606 31.2682 70.1931 31.2682C65.4256 31.2682 61.6221 35.2171 61.6221 40.0117C61.6221 44.8063 65.4256 48.7552 70.1931 48.7552Z" stroke="black" stroke-width="3"/>
<path d="M20.8684 48.7552C25.6359 48.7552 29.4394 44.8063 29.4394 40.0117C29.4394 35.2171 25.6359 31.2682 20.8684 31.2682C16.1009 31.2682 12.2974 35.2171 12.2974 40.0117C12.2974 44.8063 16.1009 48.7552 20.8684 48.7552Z" stroke="black" stroke-width="3"/>
<circle cx="20.8681" cy="39.8393" r="3.62175" fill="black"/>
<circle cx="70.193" cy="39.8393" r="3.62175" fill="black"/>
<rect x="27.2493" y="64.8466" width="39.3218" height="3.31081" fill="black"/>
</svg>
