<svg width="155" height="155" viewBox="0 0 155 155" fill="none" xmlns="http://www.w3.org/2000/svg">
<path d="M1.5 1.5H153.5V153.5H1.5V1.5Z" stroke="black" stroke-width="3"/>
<path d="M119.934 82.2415C127.468 82.2415 133.515 75.9945 133.515 68.3651C133.515 60.7356 127.468 54.4886 119.934 54.4886C112.399 54.4886 106.352 60.7356 106.352 68.3651C106.352 75.9945 112.399 82.2415 119.934 82.2415Z" stroke="black" stroke-width="3"/>
<path d="M35.656 82.2415C43.1908 82.2415 49.2377 75.9945 49.2377 68.3651C49.2377 60.7356 43.1908 54.4886 35.656 54.4886C28.1211 54.4886 22.0742 60.7356 22.0742 68.3651C22.0742 75.9945 28.1211 82.2415 35.656 82.2415Z" stroke="black" stroke-width="3"/>
<circle cx="35.656" cy="68.0703" r="6.18821" fill="black"/>
<circle cx="119.934" cy="68.0703" r="6.18821" fill="black"/>
<rect x="46.5588" y="110.798" width="67.1863" height="5.89354" fill="black"/>
</svg>
