<svg width="95" height="108" viewBox="0 0 95 108" fill="none" xmlns="http://www.w3.org/2000/svg">
<path d="M83.5275 50.0319C82.2947 69.2506 80.521 83.2122 75.6736 92.3833C73.2819 96.9085 70.1598 100.224 65.9901 102.428C61.7982 104.645 56.4361 105.798 49.4802 105.798C40.9508 105.798 34.6038 104.113 29.8043 101.215C25.015 98.3228 21.6442 94.1482 19.1861 88.9509C14.542 79.132 13.2504 65.9283 11.8265 51.3706C11.7277 50.3609 11.6283 49.3447 11.5271 48.3227C11.5325 31.3498 13.3895 19.7165 18.6748 12.3063C23.8596 5.03723 32.6172 1.5 47.4653 1.5C62.4028 1.5 71.7793 4.44231 77.2686 11.6051C82.8381 18.8724 84.7549 30.8961 83.5275 50.0319Z" stroke="black" stroke-width="3"/>
<ellipse cx="27.2751" cy="42.1406" rx="3.54635" ry="3.50184" fill="black"/>
<path d="M71.475 42.1406C71.475 43.2284 70.5768 44.1425 69.4287 44.1425C68.2806 44.1425 67.3823 43.2284 67.3823 42.1406C67.3823 41.0529 68.2806 40.1388 69.4287 40.1388C70.5768 40.1388 71.475 41.0529 71.475 42.1406Z" fill="black" stroke="black" stroke-width="3"/>
<path d="M27.6612 28.8021C25.9686 29.1825 21.7694 31.1629 18.5132 36.0419C17.2639 40.37 27.6612 30.6908 28.7089 29.9038C29.5472 29.2743 28.3597 28.907 27.6612 28.8021Z" fill="black" stroke="black" stroke-width="3"/>
<path d="M78.0836 36.8412C77.284 35.3359 74.2718 31.86 68.6201 29.999C64.0157 29.898 76.2105 37.3126 77.2525 38.1068C78.086 38.7422 78.1539 37.5279 78.0836 36.8412Z" fill="black" stroke="black" stroke-width="3"/>
<path d="M49.2873 44.1254C42.8256 44.1254 41.674 46.931 32.4403 62.1539C27.1201 70.9248 35.7425 73.8433 38.8612 70.3469C41.9799 66.8505 42.6678 67.3724 46.2911 70.921C48.4925 73.0771 49.7766 70.8166 51.5653 69.0423C52.9963 67.6229 55.6472 70.9855 56.9772 71.5994C61.8387 73.8433 69.1841 73.2201 62.2516 59.2315C56.9772 48.5889 55.749 44.1253 49.2873 44.1254Z" stroke="black" stroke-width="3"/>
<path d="M44.1486 82.9934C47.0363 81.1284 50.4604 81.9459 53.8068 84.0684C55.1231 85.214 56.4128 87.6718 55.4582 88.4745C54.0072 89.6948 52.835 86.1937 48.7589 86.1952C43.7152 86.197 41.6879 90.4344 40.8398 88.4798C40.1825 86.9648 41.3707 84.7875 44.1486 82.9934Z" fill="black" stroke="black" stroke-width="3"/>
<path d="M10.5952 48.4614C7.53448 48.759 1.46406 51.1906 1.6681 58.5363C1.87215 65.882 9.14988 67.8035 12.5082 67.9735" stroke="black" stroke-width="3"/>
<path d="M84.5767 48.9714C87.456 49.2554 93.1667 51.5757 92.9748 58.5854C92.7828 65.595 85.9364 67.4285 82.7771 67.5908" stroke="black" stroke-width="3"/>
</svg>
