<svg width="91" height="91" viewBox="0 0 91 91" fill="none" xmlns="http://www.w3.org/2000/svg">
<path d="M2 2H88.7162V45.3581V88.7162H2V2Z" stroke="black" stroke-width="4"/>
<path d="M70.1931 49.2552C75.2481 49.2552 79.2641 45.071 79.2641 40.0117C79.2641 34.9524 75.2481 30.7682 70.1931 30.7682C65.1382 30.7682 61.1221 34.9524 61.1221 40.0117C61.1221 45.071 65.1382 49.2552 70.1931 49.2552Z" stroke="black" stroke-width="4"/>
<path d="M20.8684 49.2552C25.9234 49.2552 29.9394 45.071 29.9394 40.0117C29.9394 34.9524 25.9234 30.7682 20.8684 30.7682C15.8134 30.7682 11.7974 34.9524 11.7974 40.0117C11.7974 45.071 15.8134 49.2552 20.8684 49.2552Z" stroke="black" stroke-width="4"/>
<circle cx="20.8681" cy="39.8393" r="3.62175" fill="black"/>
<circle cx="70.193" cy="39.8393" r="3.62175" fill="black"/>
<rect x="27.2493" y="64.8466" width="39.3218" height="4" fill="black"/>
</svg>
