<svg width="150" height="100" viewBox="0 0 150 100" fill="none" xmlns="http://www.w3.org/2000/svg">
<path d="M134.772 49.9222C134.772 76.4242 108.962 98.3445 76.534 98.3445C44.1064 98.3445 18.2957 76.4242 18.2957 49.9222C18.2957 36.2308 20.4167 24.2513 28.5341 15.6515C36.6447 7.05901 51.0718 1.5 76.534 1.5C101.996 1.5 116.423 7.05901 124.534 15.6515C132.651 24.2513 134.772 36.2308 134.772 49.9222Z" stroke="black" stroke-width="3"/>
<ellipse cx="58.7113" cy="45.2077" rx="3.76574" ry="4.02818" fill="black"/>
<path d="M104.541 39.9182C102.247 33.9914 98.9689 33.0523 93.7749 33.9914C93.1467 36.7839 99.4966 35.4477 103.113 41.2847C103.729 42.2781 104.877 40.4245 104.541 39.9182Z" fill="black"/>
<path d="M56.7603 33.3688C50.4182 32.9602 48.1885 35.5408 46.8584 40.6486C49.1286 42.392 50.5839 36.0683 57.4003 35.2387C58.5604 35.0975 57.3607 33.2769 56.7603 33.3688Z" fill="black"/>
<ellipse cx="94.6569" cy="45.2077" rx="3.76574" ry="4.02818" fill="black"/>
<path d="M82.4611 77.3535C82.4611 78.8594 80.3884 80.951 76.301 80.951C72.2137 80.951 70.9499 79.9917 70.95 78.2529C70.95 77.3535 72.6879 77.3535 76.7753 77.3535C80.8626 77.3535 82.2279 75.8015 82.4611 77.3535Z" fill="black"/>
<path d="M82.5053 54.9722C84.5679 54.7267 89.2197 54.6161 93.683 55.6911C98.1463 56.7662 101.384 66.0792 102.445 70.9608L93.683 68.0334L85.8464 70.9608L78.5652 68.0334L70.7903 70.9608L59.9919 66.7949L47.1572 70.9608C49.1729 67.2453 56.575 54.6598 59.9919 54.9722H70.9445M82.5053 54.9722C81.8668 51.4363 79.1545 45.36 76.612 45.36C73.6071 45.36 71.6014 51.9095 70.7903 54.365C70.8264 54.5534 69.9821 54.9722 70.9445 54.9722M82.5053 54.9722C82.6791 55.8562 80.7373 59.5217 76.612 59.5217C73.3302 59.5217 71.4719 56.6525 70.9445 54.9722" stroke="black" stroke-width="3"/>
<path d="M18.269 39.3374C12.8668 37.9132 2.79923 38.748 5.74584 53.4811C8.69246 68.2142 16.5992 67.1829 20.1843 64.8256" stroke="black" stroke-width="3"/>
<path d="M135.511 40.2287C140.403 38.925 149.52 39.6892 146.851 53.1756C144.183 66.6619 137.023 65.7178 133.776 63.56" stroke="black" stroke-width="3"/>
</svg>
