<svg width="464" height="146" viewBox="0 0 464 146" fill="none" xmlns="http://www.w3.org/2000/svg">
<rect x="0.5" y="0.5" width="463" height="145" stroke="black"/>
<path d="M53.4982 85.648V65.008H58.5622V66.88H56.1382V83.776H58.5622V85.648H53.4982ZM61.3402 82V79.144H64.6522V70.336H61.7962V68.152C62.6282 67.992 63.3322 67.8 63.9082 67.576C64.4842 67.352 65.0442 67.08 65.5882 66.76H68.1802V79.144H71.0362V82H61.3402ZM73.4438 85.648V83.776H75.8918V66.88H73.4438V65.008H78.5078V85.648H73.4438Z" fill="black"/>
<path d="M136.16 43V27.256H138.152V43H136.16ZM146.209 48.376C145.489 48.376 144.833 48.304 144.241 48.16C143.649 48.032 143.137 47.832 142.705 47.56C142.289 47.288 141.961 46.96 141.721 46.576C141.497 46.192 141.385 45.744 141.385 45.232C141.385 44.736 141.537 44.264 141.841 43.816C142.145 43.368 142.561 42.96 143.089 42.592V42.496C142.801 42.32 142.553 42.08 142.345 41.776C142.153 41.456 142.057 41.064 142.057 40.6C142.057 40.104 142.193 39.672 142.465 39.304C142.737 38.936 143.025 38.648 143.329 38.44V38.344C142.945 38.024 142.593 37.6 142.273 37.072C141.969 36.528 141.817 35.904 141.817 35.2C141.817 34.56 141.929 33.984 142.153 33.472C142.393 32.96 142.713 32.528 143.113 32.176C143.513 31.808 143.977 31.528 144.505 31.336C145.049 31.144 145.617 31.048 146.209 31.048C146.529 31.048 146.825 31.08 147.097 31.144C147.385 31.192 147.641 31.256 147.865 31.336H151.921V32.848H149.521C149.793 33.12 150.017 33.464 150.193 33.88C150.385 34.296 150.481 34.752 150.481 35.248C150.481 35.872 150.369 36.44 150.145 36.952C149.921 37.448 149.617 37.872 149.233 38.224C148.849 38.56 148.393 38.824 147.865 39.016C147.353 39.208 146.801 39.304 146.209 39.304C145.921 39.304 145.625 39.272 145.321 39.208C145.017 39.128 144.729 39.024 144.457 38.896C144.249 39.072 144.073 39.272 143.929 39.496C143.785 39.704 143.713 39.968 143.713 40.288C143.713 40.656 143.857 40.96 144.145 41.2C144.433 41.44 144.977 41.56 145.777 41.56H148.033C149.393 41.56 150.409 41.784 151.081 42.232C151.769 42.664 152.113 43.368 152.113 44.344C152.113 44.888 151.977 45.4 151.705 45.88C151.433 46.376 151.041 46.808 150.529 47.176C150.017 47.544 149.393 47.832 148.657 48.04C147.937 48.264 147.121 48.376 146.209 48.376ZM146.209 37.984C146.545 37.984 146.857 37.92 147.145 37.792C147.449 37.664 147.713 37.48 147.937 37.24C148.177 37 148.361 36.712 148.489 36.376C148.617 36.024 148.681 35.632 148.681 35.2C148.681 34.336 148.441 33.672 147.961 33.208C147.481 32.728 146.897 32.488 146.209 32.488C145.521 32.488 144.937 32.728 144.457 33.208C143.977 33.672 143.737 34.336 143.737 35.2C143.737 35.632 143.801 36.024 143.929 36.376C144.057 36.712 144.233 37 144.457 37.24C144.697 37.48 144.961 37.664 145.249 37.792C145.553 37.92 145.873 37.984 146.209 37.984ZM146.497 47.008C147.057 47.008 147.561 46.936 148.009 46.792C148.473 46.664 148.865 46.488 149.185 46.264C149.505 46.056 149.753 45.808 149.929 45.52C150.105 45.232 150.193 44.936 150.193 44.632C150.193 44.088 149.993 43.712 149.593 43.504C149.193 43.296 148.609 43.192 147.841 43.192H145.825C145.601 43.192 145.353 43.176 145.081 43.144C144.825 43.128 144.569 43.08 144.313 43C143.897 43.304 143.593 43.624 143.401 43.96C143.209 44.296 143.113 44.632 143.113 44.968C143.113 45.592 143.409 46.088 144.001 46.456C144.609 46.824 145.441 47.008 146.497 47.008ZM154.366 43V31.336H155.998L156.166 33.016H156.238C156.798 32.456 157.382 31.992 157.99 31.624C158.614 31.24 159.334 31.048 160.15 31.048C161.382 31.048 162.278 31.432 162.838 32.2C163.414 32.968 163.702 34.104 163.702 35.608V43H161.734V35.872C161.734 34.768 161.558 33.976 161.206 33.496C160.854 33 160.294 32.752 159.526 32.752C158.918 32.752 158.382 32.904 157.918 33.208C157.454 33.512 156.926 33.96 156.334 34.552V43H154.366ZM172.027 43.288C171.307 43.288 170.619 43.152 169.963 42.88C169.323 42.608 168.755 42.216 168.259 41.704C167.763 41.176 167.363 40.536 167.059 39.784C166.771 39.016 166.627 38.152 166.627 37.192C166.627 36.216 166.771 35.352 167.059 34.6C167.363 33.832 167.763 33.184 168.259 32.656C168.755 32.128 169.323 31.728 169.963 31.456C170.619 31.184 171.307 31.048 172.027 31.048C172.747 31.048 173.427 31.184 174.067 31.456C174.723 31.728 175.299 32.128 175.795 32.656C176.291 33.184 176.683 33.832 176.971 34.6C177.275 35.352 177.427 36.216 177.427 37.192C177.427 38.152 177.275 39.016 176.971 39.784C176.683 40.536 176.291 41.176 175.795 41.704C175.299 42.216 174.723 42.608 174.067 42.88C173.427 43.152 172.747 43.288 172.027 43.288ZM172.027 41.656C172.523 41.656 172.979 41.552 173.395 41.344C173.811 41.12 174.163 40.816 174.451 40.432C174.755 40.032 174.987 39.56 175.147 39.016C175.307 38.472 175.387 37.864 175.387 37.192C175.387 36.52 175.307 35.912 175.147 35.368C174.987 34.808 174.755 34.328 174.451 33.928C174.163 33.528 173.811 33.224 173.395 33.016C172.979 32.792 172.523 32.68 172.027 32.68C171.531 32.68 171.075 32.792 170.659 33.016C170.243 33.224 169.883 33.528 169.579 33.928C169.291 34.328 169.067 34.808 168.907 35.368C168.747 35.912 168.667 36.52 168.667 37.192C168.667 37.864 168.747 38.472 168.907 39.016C169.067 39.56 169.291 40.032 169.579 40.432C169.883 40.816 170.243 41.12 170.659 41.344C171.075 41.552 171.531 41.656 172.027 41.656ZM180.499 43V31.336H182.131L182.299 33.448H182.371C182.771 32.712 183.251 32.128 183.811 31.696C184.387 31.264 185.011 31.048 185.683 31.048C186.147 31.048 186.563 31.128 186.931 31.288L186.547 33.016C186.355 32.952 186.179 32.904 186.019 32.872C185.859 32.84 185.659 32.824 185.419 32.824C184.923 32.824 184.403 33.024 183.859 33.424C183.331 33.824 182.867 34.52 182.467 35.512V43H180.499ZM193.313 43.288C192.529 43.288 191.793 43.152 191.105 42.88C190.433 42.592 189.841 42.192 189.329 41.68C188.833 41.152 188.441 40.512 188.153 39.76C187.865 39.008 187.721 38.152 187.721 37.192C187.721 36.232 187.865 35.376 188.153 34.624C188.457 33.856 188.849 33.208 189.329 32.68C189.825 32.152 190.385 31.752 191.009 31.48C191.633 31.192 192.281 31.048 192.953 31.048C193.689 31.048 194.345 31.176 194.921 31.432C195.513 31.688 196.001 32.056 196.385 32.536C196.785 33.016 197.089 33.592 197.297 34.264C197.505 34.936 197.609 35.688 197.609 36.52C197.609 36.728 197.601 36.936 197.585 37.144C197.585 37.336 197.569 37.504 197.537 37.648H189.665C189.745 38.896 190.129 39.888 190.817 40.624C191.521 41.344 192.433 41.704 193.553 41.704C194.113 41.704 194.625 41.624 195.089 41.464C195.569 41.288 196.025 41.064 196.457 40.792L197.153 42.088C196.641 42.408 196.073 42.688 195.449 42.928C194.825 43.168 194.113 43.288 193.313 43.288ZM189.641 36.232H195.881C195.881 35.048 195.625 34.152 195.113 33.544C194.617 32.92 193.913 32.608 193.001 32.608C192.585 32.608 192.185 32.688 191.801 32.848C191.433 33.008 191.097 33.248 190.793 33.568C190.489 33.872 190.233 34.248 190.025 34.696C189.833 35.144 189.705 35.656 189.641 36.232ZM208.968 43.288C208.344 43.288 207.816 43.192 207.384 43C206.968 42.808 206.624 42.544 206.352 42.208C206.096 41.872 205.912 41.464 205.8 40.984C205.688 40.504 205.632 39.976 205.632 39.4V32.944H203.904V31.456L205.728 31.336L205.968 28.072H207.624V31.336H210.768V32.944H207.624V39.424C207.624 40.144 207.752 40.704 208.008 41.104C208.28 41.488 208.752 41.68 209.424 41.68C209.632 41.68 209.856 41.648 210.096 41.584C210.336 41.52 210.552 41.448 210.744 41.368L211.128 42.856C210.808 42.968 210.456 43.064 210.072 43.144C209.704 43.24 209.336 43.288 208.968 43.288ZM213.406 43V25.912H215.374V30.568L215.302 32.968C215.862 32.44 216.446 31.992 217.054 31.624C217.662 31.24 218.374 31.048 219.19 31.048C220.422 31.048 221.318 31.432 221.878 32.2C222.454 32.968 222.742 34.104 222.742 35.608V43H220.774V35.872C220.774 34.768 220.598 33.976 220.246 33.496C219.894 33 219.334 32.752 218.566 32.752C217.958 32.752 217.422 32.904 216.958 33.208C216.494 33.512 215.966 33.96 215.374 34.552V43H213.406ZM231.188 43.288C230.404 43.288 229.668 43.152 228.98 42.88C228.308 42.592 227.716 42.192 227.204 41.68C226.708 41.152 226.316 40.512 226.028 39.76C225.74 39.008 225.596 38.152 225.596 37.192C225.596 36.232 225.74 35.376 226.028 34.624C226.332 33.856 226.724 33.208 227.204 32.68C227.7 32.152 228.26 31.752 228.884 31.48C229.508 31.192 230.156 31.048 230.828 31.048C231.564 31.048 232.22 31.176 232.796 31.432C233.388 31.688 233.876 32.056 234.26 32.536C234.66 33.016 234.964 33.592 235.172 34.264C235.38 34.936 235.484 35.688 235.484 36.52C235.484 36.728 235.476 36.936 235.46 37.144C235.46 37.336 235.444 37.504 235.412 37.648H227.54C227.62 38.896 228.004 39.888 228.692 40.624C229.396 41.344 230.308 41.704 231.428 41.704C231.988 41.704 232.5 41.624 232.964 41.464C233.444 41.288 233.9 41.064 234.332 40.792L235.028 42.088C234.516 42.408 233.948 42.688 233.324 42.928C232.7 43.168 231.988 43.288 231.188 43.288ZM227.516 36.232H233.756C233.756 35.048 233.5 34.152 232.988 33.544C232.492 32.92 231.788 32.608 230.876 32.608C230.46 32.608 230.06 32.688 229.676 32.848C229.308 33.008 228.972 33.248 228.668 33.568C228.364 33.872 228.108 34.248 227.9 34.696C227.708 35.144 227.58 35.656 227.516 36.232ZM246.843 43.288C246.219 43.288 245.691 43.192 245.259 43C244.843 42.808 244.499 42.544 244.227 42.208C243.971 41.872 243.787 41.464 243.675 40.984C243.563 40.504 243.507 39.976 243.507 39.4V32.944H241.779V31.456L243.603 31.336L243.843 28.072H245.499V31.336H248.643V32.944H245.499V39.424C245.499 40.144 245.627 40.704 245.883 41.104C246.155 41.488 246.627 41.68 247.299 41.68C247.507 41.68 247.731 41.648 247.971 41.584C248.211 41.52 248.427 41.448 248.619 41.368L249.003 42.856C248.683 42.968 248.331 43.064 247.947 43.144C247.579 43.24 247.211 43.288 246.843 43.288ZM255.68 43.288C254.896 43.288 254.16 43.152 253.472 42.88C252.8 42.592 252.208 42.192 251.696 41.68C251.2 41.152 250.808 40.512 250.52 39.76C250.232 39.008 250.088 38.152 250.088 37.192C250.088 36.232 250.232 35.376 250.52 34.624C250.824 33.856 251.216 33.208 251.696 32.68C252.192 32.152 252.752 31.752 253.376 31.48C254 31.192 254.648 31.048 255.32 31.048C256.056 31.048 256.712 31.176 257.288 31.432C257.88 31.688 258.368 32.056 258.752 32.536C259.152 33.016 259.456 33.592 259.664 34.264C259.872 34.936 259.976 35.688 259.976 36.52C259.976 36.728 259.968 36.936 259.952 37.144C259.952 37.336 259.936 37.504 259.904 37.648H252.032C252.112 38.896 252.496 39.888 253.184 40.624C253.888 41.344 254.8 41.704 255.92 41.704C256.48 41.704 256.992 41.624 257.456 41.464C257.936 41.288 258.392 41.064 258.824 40.792L259.52 42.088C259.008 42.408 258.44 42.688 257.816 42.928C257.192 43.168 256.48 43.288 255.68 43.288ZM252.008 36.232H258.248C258.248 35.048 257.992 34.152 257.48 33.544C256.984 32.92 256.28 32.608 255.368 32.608C254.952 32.608 254.552 32.688 254.168 32.848C253.8 33.008 253.464 33.248 253.16 33.568C252.856 33.872 252.6 34.248 252.392 34.696C252.2 35.144 252.072 35.656 252.008 36.232ZM262.859 43V31.336H264.491L264.659 33.016H264.731C265.243 32.456 265.795 31.992 266.387 31.624C266.995 31.24 267.651 31.048 268.355 31.048C269.251 31.048 269.947 31.248 270.443 31.648C270.955 32.032 271.331 32.576 271.571 33.28C272.179 32.608 272.787 32.072 273.395 31.672C274.019 31.256 274.691 31.048 275.411 31.048C276.611 31.048 277.499 31.432 278.075 32.2C278.667 32.968 278.963 34.104 278.963 35.608V43H276.995V35.872C276.995 34.768 276.819 33.976 276.467 33.496C276.115 33 275.571 32.752 274.835 32.752C273.955 32.752 272.979 33.352 271.907 34.552V43H269.939V35.872C269.939 34.768 269.763 33.976 269.411 33.496C269.059 33 268.507 32.752 267.755 32.752C266.875 32.752 265.899 33.352 264.827 34.552V43H262.859ZM282.757 47.92V31.336H284.389L284.557 32.68H284.629C285.157 32.232 285.733 31.848 286.357 31.528C286.997 31.208 287.661 31.048 288.349 31.048C289.101 31.048 289.765 31.192 290.341 31.48C290.917 31.752 291.397 32.152 291.781 32.68C292.165 33.192 292.453 33.816 292.645 34.552C292.853 35.272 292.957 36.088 292.957 37C292.957 37.992 292.821 38.88 292.549 39.664C292.277 40.432 291.909 41.088 291.445 41.632C290.981 42.176 290.445 42.592 289.837 42.88C289.229 43.152 288.589 43.288 287.917 43.288C287.373 43.288 286.829 43.168 286.285 42.928C285.757 42.688 285.221 42.36 284.677 41.944L284.725 43.984V47.92H282.757ZM287.581 41.632C288.061 41.632 288.501 41.528 288.901 41.32C289.317 41.096 289.669 40.792 289.957 40.408C290.261 40.008 290.493 39.52 290.653 38.944C290.829 38.368 290.917 37.72 290.917 37C290.917 36.36 290.861 35.776 290.749 35.248C290.637 34.72 290.453 34.272 290.197 33.904C289.957 33.52 289.637 33.224 289.237 33.016C288.853 32.808 288.389 32.704 287.845 32.704C287.349 32.704 286.845 32.84 286.333 33.112C285.837 33.384 285.301 33.776 284.725 34.288V40.408C285.253 40.856 285.765 41.176 286.261 41.368C286.757 41.544 287.197 41.632 287.581 41.632ZM299.343 43.288C298.719 43.288 298.191 43.192 297.759 43C297.343 42.808 296.999 42.544 296.727 42.208C296.471 41.872 296.287 41.464 296.175 40.984C296.063 40.504 296.007 39.976 296.007 39.4V32.944H294.279V31.456L296.103 31.336L296.343 28.072H297.999V31.336H301.143V32.944H297.999V39.424C297.999 40.144 298.127 40.704 298.383 41.104C298.655 41.488 299.127 41.68 299.799 41.68C300.007 41.68 300.231 41.648 300.471 41.584C300.711 41.52 300.927 41.448 301.119 41.368L301.503 42.856C301.183 42.968 300.831 43.064 300.447 43.144C300.079 43.24 299.711 43.288 299.343 43.288ZM305.953 43.288C304.977 43.288 304.161 43 303.505 42.424C302.865 41.848 302.545 41.032 302.545 39.976C302.545 38.696 303.113 37.72 304.249 37.048C305.385 36.36 307.201 35.88 309.697 35.608C309.697 35.24 309.657 34.88 309.577 34.528C309.513 34.176 309.393 33.864 309.217 33.592C309.041 33.32 308.793 33.104 308.473 32.944C308.169 32.768 307.777 32.68 307.297 32.68C306.625 32.68 305.993 32.808 305.401 33.064C304.809 33.32 304.281 33.608 303.817 33.928L303.049 32.56C303.593 32.208 304.257 31.872 305.041 31.552C305.825 31.216 306.689 31.048 307.633 31.048C309.057 31.048 310.089 31.488 310.729 32.368C311.369 33.232 311.689 34.392 311.689 35.848V43H310.057L309.889 41.608H309.817C309.257 42.072 308.657 42.472 308.017 42.808C307.377 43.128 306.689 43.288 305.953 43.288ZM306.529 41.704C307.089 41.704 307.617 41.576 308.113 41.32C308.609 41.048 309.137 40.656 309.697 40.144V36.904C308.721 37.032 307.897 37.184 307.225 37.36C306.569 37.536 306.033 37.744 305.617 37.984C305.217 38.224 304.921 38.504 304.729 38.824C304.553 39.128 304.465 39.464 304.465 39.832C304.465 40.504 304.665 40.984 305.065 41.272C305.465 41.56 305.953 41.704 306.529 41.704ZM318.703 43.288C318.079 43.288 317.551 43.192 317.119 43C316.703 42.808 316.359 42.544 316.087 42.208C315.831 41.872 315.647 41.464 315.535 40.984C315.423 40.504 315.367 39.976 315.367 39.4V32.944H313.639V31.456L315.463 31.336L315.703 28.072H317.359V31.336H320.503V32.944H317.359V39.424C317.359 40.144 317.487 40.704 317.743 41.104C318.015 41.488 318.487 41.68 319.159 41.68C319.367 41.68 319.591 41.648 319.831 41.584C320.071 41.52 320.287 41.448 320.479 41.368L320.863 42.856C320.543 42.968 320.191 43.064 319.807 43.144C319.439 43.24 319.071 43.288 318.703 43.288ZM323.14 43V31.336H325.108V43H323.14ZM324.148 28.936C323.764 28.936 323.436 28.816 323.164 28.576C322.908 28.336 322.78 28.032 322.78 27.664C322.78 27.28 322.908 26.976 323.164 26.752C323.436 26.512 323.764 26.392 324.148 26.392C324.532 26.392 324.852 26.512 325.108 26.752C325.38 26.976 325.516 27.28 325.516 27.664C325.516 28.032 325.38 28.336 325.108 28.576C324.852 28.816 324.532 28.936 324.148 28.936ZM333.582 43.288C332.862 43.288 332.174 43.152 331.518 42.88C330.878 42.608 330.31 42.216 329.814 41.704C329.318 41.176 328.918 40.536 328.614 39.784C328.326 39.016 328.182 38.152 328.182 37.192C328.182 36.216 328.326 35.352 328.614 34.6C328.918 33.832 329.318 33.184 329.814 32.656C330.31 32.128 330.878 31.728 331.518 31.456C332.174 31.184 332.862 31.048 333.582 31.048C334.302 31.048 334.982 31.184 335.622 31.456C336.278 31.728 336.854 32.128 337.35 32.656C337.846 33.184 338.238 33.832 338.526 34.6C338.83 35.352 338.982 36.216 338.982 37.192C338.982 38.152 338.83 39.016 338.526 39.784C338.238 40.536 337.846 41.176 337.35 41.704C336.854 42.216 336.278 42.608 335.622 42.88C334.982 43.152 334.302 43.288 333.582 43.288ZM333.582 41.656C334.078 41.656 334.534 41.552 334.95 41.344C335.366 41.12 335.718 40.816 336.006 40.432C336.31 40.032 336.542 39.56 336.702 39.016C336.862 38.472 336.942 37.864 336.942 37.192C336.942 36.52 336.862 35.912 336.702 35.368C336.542 34.808 336.31 34.328 336.006 33.928C335.718 33.528 335.366 33.224 334.95 33.016C334.534 32.792 334.078 32.68 333.582 32.68C333.086 32.68 332.63 32.792 332.214 33.016C331.798 33.224 331.438 33.528 331.134 33.928C330.846 34.328 330.622 34.808 330.462 35.368C330.302 35.912 330.222 36.52 330.222 37.192C330.222 37.864 330.302 38.472 330.462 39.016C330.622 39.56 330.846 40.032 331.134 40.432C331.438 40.816 331.798 41.12 332.214 41.344C332.63 41.552 333.086 41.656 333.582 41.656ZM342.054 43V31.336H343.686L343.854 33.016H343.926C344.486 32.456 345.07 31.992 345.678 31.624C346.302 31.24 347.022 31.048 347.838 31.048C349.07 31.048 349.966 31.432 350.526 32.2C351.102 32.968 351.39 34.104 351.39 35.608V43H349.422V35.872C349.422 34.768 349.246 33.976 348.894 33.496C348.542 33 347.982 32.752 347.214 32.752C346.606 32.752 346.07 32.904 345.606 33.208C345.142 33.512 344.614 33.96 344.022 34.552V43H342.054ZM362.672 43.288C361.696 43.288 360.88 43 360.224 42.424C359.584 41.848 359.264 41.032 359.264 39.976C359.264 38.696 359.832 37.72 360.968 37.048C362.104 36.36 363.92 35.88 366.416 35.608C366.416 35.24 366.376 34.88 366.296 34.528C366.232 34.176 366.112 33.864 365.936 33.592C365.76 33.32 365.512 33.104 365.192 32.944C364.888 32.768 364.496 32.68 364.016 32.68C363.344 32.68 362.712 32.808 362.12 33.064C361.528 33.32 361 33.608 360.536 33.928L359.768 32.56C360.312 32.208 360.976 31.872 361.76 31.552C362.544 31.216 363.408 31.048 364.352 31.048C365.776 31.048 366.808 31.488 367.448 32.368C368.088 33.232 368.408 34.392 368.408 35.848V43H366.776L366.608 41.608H366.536C365.976 42.072 365.376 42.472 364.736 42.808C364.096 43.128 363.408 43.288 362.672 43.288ZM363.248 41.704C363.808 41.704 364.336 41.576 364.832 41.32C365.328 41.048 365.856 40.656 366.416 40.144V36.904C365.44 37.032 364.616 37.184 363.944 37.36C363.288 37.536 362.752 37.744 362.336 37.984C361.936 38.224 361.64 38.504 361.448 38.824C361.272 39.128 361.184 39.464 361.184 39.832C361.184 40.504 361.384 40.984 361.784 41.272C362.184 41.56 362.672 41.704 363.248 41.704ZM372.077 43V31.336H373.709L373.877 33.016H373.949C374.509 32.456 375.093 31.992 375.701 31.624C376.325 31.24 377.045 31.048 377.861 31.048C379.093 31.048 379.989 31.432 380.549 32.2C381.125 32.968 381.413 34.104 381.413 35.608V43H379.445V35.872C379.445 34.768 379.269 33.976 378.917 33.496C378.565 33 378.005 32.752 377.237 32.752C376.629 32.752 376.093 32.904 375.629 33.208C375.165 33.512 374.637 33.96 374.045 34.552V43H372.077ZM389.186 43.288C387.714 43.288 386.538 42.76 385.658 41.704C384.794 40.648 384.362 39.144 384.362 37.192C384.362 36.248 384.498 35.4 384.77 34.648C385.058 33.88 385.434 33.232 385.898 32.704C386.362 32.176 386.898 31.768 387.506 31.48C388.114 31.192 388.754 31.048 389.426 31.048C390.098 31.048 390.682 31.168 391.178 31.408C391.674 31.648 392.178 31.976 392.69 32.392L392.594 30.4V25.912H394.586V43H392.954L392.786 41.632H392.714C392.25 42.08 391.714 42.472 391.106 42.808C390.514 43.128 389.874 43.288 389.186 43.288ZM389.618 41.632C390.162 41.632 390.674 41.504 391.154 41.248C391.634 40.976 392.114 40.568 392.594 40.024V33.928C392.098 33.48 391.618 33.168 391.154 32.992C390.706 32.8 390.242 32.704 389.762 32.704C389.298 32.704 388.858 32.816 388.442 33.04C388.042 33.248 387.69 33.552 387.386 33.952C387.082 34.336 386.842 34.8 386.666 35.344C386.49 35.888 386.402 36.496 386.402 37.168C386.402 38.576 386.682 39.672 387.242 40.456C387.802 41.24 388.594 41.632 389.618 41.632ZM406.728 43.288C405.48 43.288 404.568 42.904 403.992 42.136C403.432 41.368 403.152 40.232 403.152 38.728V31.336H405.144V38.464C405.144 39.568 405.312 40.368 405.648 40.864C406 41.344 406.56 41.584 407.328 41.584C407.936 41.584 408.472 41.432 408.936 41.128C409.4 40.808 409.912 40.304 410.472 39.616V31.336H412.44V43H410.808L410.64 41.176H410.568C410.024 41.816 409.448 42.328 408.84 42.712C408.248 43.096 407.544 43.288 406.728 43.288ZM419.422 43.288C418.59 43.288 417.798 43.136 417.046 42.832C416.294 42.528 415.638 42.144 415.078 41.68L416.062 40.36C416.574 40.776 417.094 41.112 417.622 41.368C418.166 41.624 418.79 41.752 419.494 41.752C420.262 41.752 420.838 41.576 421.222 41.224C421.606 40.872 421.798 40.44 421.798 39.928C421.798 39.624 421.718 39.36 421.558 39.136C421.398 38.912 421.19 38.72 420.934 38.56C420.694 38.384 420.414 38.232 420.094 38.104C419.774 37.976 419.454 37.848 419.134 37.72C418.718 37.576 418.302 37.416 417.886 37.24C417.47 37.048 417.094 36.824 416.758 36.568C416.438 36.296 416.174 35.984 415.966 35.632C415.758 35.28 415.654 34.856 415.654 34.36C415.654 33.896 415.742 33.464 415.918 33.064C416.11 32.648 416.374 32.296 416.71 32.008C417.062 31.704 417.486 31.472 417.982 31.312C418.478 31.136 419.038 31.048 419.662 31.048C420.398 31.048 421.07 31.176 421.678 31.432C422.302 31.688 422.838 32 423.286 32.368L422.35 33.616C421.95 33.312 421.534 33.064 421.102 32.872C420.67 32.68 420.198 32.584 419.686 32.584C418.95 32.584 418.406 32.752 418.054 33.088C417.718 33.424 417.55 33.816 417.55 34.264C417.55 34.536 417.622 34.776 417.766 34.984C417.91 35.176 418.102 35.352 418.342 35.512C418.582 35.656 418.854 35.792 419.158 35.92C419.478 36.032 419.806 36.152 420.142 36.28C420.558 36.44 420.974 36.608 421.39 36.784C421.822 36.96 422.206 37.184 422.542 37.456C422.878 37.712 423.15 38.032 423.358 38.416C423.582 38.8 423.694 39.264 423.694 39.808C423.694 40.288 423.598 40.736 423.406 41.152C423.23 41.568 422.958 41.936 422.59 42.256C422.238 42.576 421.79 42.824 421.246 43C420.718 43.192 420.11 43.288 419.422 43.288ZM431.157 43.288C430.373 43.288 429.637 43.152 428.949 42.88C428.277 42.592 427.685 42.192 427.173 41.68C426.677 41.152 426.285 40.512 425.997 39.76C425.709 39.008 425.565 38.152 425.565 37.192C425.565 36.232 425.709 35.376 425.997 34.624C426.301 33.856 426.693 33.208 427.173 32.68C427.669 32.152 428.229 31.752 428.853 31.48C429.477 31.192 430.125 31.048 430.797 31.048C431.533 31.048 432.189 31.176 432.765 31.432C433.357 31.688 433.845 32.056 434.229 32.536C434.629 33.016 434.933 33.592 435.141 34.264C435.349 34.936 435.453 35.688 435.453 36.52C435.453 36.728 435.445 36.936 435.429 37.144C435.429 37.336 435.413 37.504 435.381 37.648H427.509C427.589 38.896 427.973 39.888 428.661 40.624C429.365 41.344 430.277 41.704 431.397 41.704C431.957 41.704 432.469 41.624 432.933 41.464C433.413 41.288 433.869 41.064 434.301 40.792L434.997 42.088C434.485 42.408 433.917 42.688 433.293 42.928C432.669 43.168 431.957 43.288 431.157 43.288ZM427.485 36.232H433.725C433.725 35.048 433.469 34.152 432.957 33.544C432.461 32.92 431.757 32.608 430.845 32.608C430.429 32.608 430.029 32.688 429.645 32.848C429.277 33.008 428.941 33.248 428.637 33.568C428.333 33.872 428.077 34.248 427.869 34.696C427.677 35.144 427.549 35.656 427.485 36.232ZM139.64 79.288C139.016 79.288 138.488 79.192 138.056 79C137.64 78.808 137.296 78.544 137.024 78.208C136.768 77.872 136.584 77.464 136.472 76.984C136.36 76.504 136.304 75.976 136.304 75.4V68.944H134.576V67.456L136.4 67.336L136.64 64.072H138.296V67.336H141.44V68.944H138.296V75.424C138.296 76.144 138.424 76.704 138.68 77.104C138.952 77.488 139.424 77.68 140.096 77.68C140.304 77.68 140.528 77.648 140.768 77.584C141.008 77.52 141.224 77.448 141.416 77.368L141.8 78.856C141.48 78.968 141.128 79.064 140.744 79.144C140.376 79.24 140.008 79.288 139.64 79.288ZM144.077 79V61.912H146.045V66.568L145.973 68.968C146.533 68.44 147.117 67.992 147.725 67.624C148.333 67.24 149.045 67.048 149.861 67.048C151.093 67.048 151.989 67.432 152.549 68.2C153.125 68.968 153.413 70.104 153.413 71.608V79H151.445V71.872C151.445 70.768 151.269 69.976 150.917 69.496C150.565 69 150.005 68.752 149.237 68.752C148.629 68.752 148.093 68.904 147.629 69.208C147.165 69.512 146.637 69.96 146.045 70.552V79H144.077ZM161.86 79.288C161.076 79.288 160.34 79.152 159.652 78.88C158.98 78.592 158.388 78.192 157.876 77.68C157.38 77.152 156.988 76.512 156.7 75.76C156.412 75.008 156.268 74.152 156.268 73.192C156.268 72.232 156.412 71.376 156.7 70.624C157.004 69.856 157.396 69.208 157.876 68.68C158.372 68.152 158.932 67.752 159.556 67.48C160.18 67.192 160.828 67.048 161.5 67.048C162.236 67.048 162.892 67.176 163.468 67.432C164.06 67.688 164.548 68.056 164.932 68.536C165.332 69.016 165.636 69.592 165.844 70.264C166.052 70.936 166.156 71.688 166.156 72.52C166.156 72.728 166.148 72.936 166.132 73.144C166.132 73.336 166.116 73.504 166.084 73.648H158.212C158.292 74.896 158.676 75.888 159.364 76.624C160.068 77.344 160.98 77.704 162.1 77.704C162.66 77.704 163.172 77.624 163.636 77.464C164.116 77.288 164.572 77.064 165.004 76.792L165.7 78.088C165.188 78.408 164.62 78.688 163.996 78.928C163.372 79.168 162.66 79.288 161.86 79.288ZM158.188 72.232H164.428C164.428 71.048 164.172 70.152 163.66 69.544C163.164 68.92 162.46 68.608 161.548 68.608C161.132 68.608 160.732 68.688 160.348 68.848C159.98 69.008 159.644 69.248 159.34 69.568C159.036 69.872 158.78 70.248 158.572 70.696C158.38 71.144 158.252 71.656 158.188 72.232ZM176.891 79.288C176.059 79.288 175.267 79.136 174.515 78.832C173.763 78.528 173.107 78.144 172.547 77.68L173.531 76.36C174.043 76.776 174.563 77.112 175.091 77.368C175.635 77.624 176.259 77.752 176.963 77.752C177.731 77.752 178.307 77.576 178.691 77.224C179.075 76.872 179.267 76.44 179.267 75.928C179.267 75.624 179.187 75.36 179.027 75.136C178.867 74.912 178.659 74.72 178.403 74.56C178.163 74.384 177.883 74.232 177.563 74.104C177.243 73.976 176.923 73.848 176.603 73.72C176.187 73.576 175.771 73.416 175.355 73.24C174.939 73.048 174.563 72.824 174.227 72.568C173.907 72.296 173.643 71.984 173.435 71.632C173.227 71.28 173.123 70.856 173.123 70.36C173.123 69.896 173.211 69.464 173.387 69.064C173.579 68.648 173.843 68.296 174.179 68.008C174.531 67.704 174.955 67.472 175.451 67.312C175.947 67.136 176.507 67.048 177.131 67.048C177.867 67.048 178.539 67.176 179.147 67.432C179.771 67.688 180.307 68 180.755 68.368L179.819 69.616C179.419 69.312 179.003 69.064 178.571 68.872C178.139 68.68 177.667 68.584 177.155 68.584C176.419 68.584 175.875 68.752 175.523 69.088C175.187 69.424 175.019 69.816 175.019 70.264C175.019 70.536 175.091 70.776 175.235 70.984C175.379 71.176 175.571 71.352 175.811 71.512C176.051 71.656 176.323 71.792 176.627 71.92C176.947 72.032 177.275 72.152 177.611 72.28C178.027 72.44 178.443 72.608 178.859 72.784C179.291 72.96 179.675 73.184 180.011 73.456C180.347 73.712 180.619 74.032 180.827 74.416C181.051 74.8 181.163 75.264 181.163 75.808C181.163 76.288 181.067 76.736 180.875 77.152C180.699 77.568 180.427 77.936 180.059 78.256C179.707 78.576 179.259 78.824 178.715 79C178.187 79.192 177.579 79.288 176.891 79.288ZM188.434 79.288C187.714 79.288 187.026 79.152 186.37 78.88C185.73 78.608 185.162 78.216 184.666 77.704C184.17 77.176 183.77 76.536 183.466 75.784C183.178 75.016 183.034 74.152 183.034 73.192C183.034 72.216 183.178 71.352 183.466 70.6C183.77 69.832 184.17 69.184 184.666 68.656C185.162 68.128 185.73 67.728 186.37 67.456C187.026 67.184 187.714 67.048 188.434 67.048C189.154 67.048 189.834 67.184 190.474 67.456C191.13 67.728 191.706 68.128 192.202 68.656C192.698 69.184 193.09 69.832 193.378 70.6C193.682 71.352 193.834 72.216 193.834 73.192C193.834 74.152 193.682 75.016 193.378 75.784C193.09 76.536 192.698 77.176 192.202 77.704C191.706 78.216 191.13 78.608 190.474 78.88C189.834 79.152 189.154 79.288 188.434 79.288ZM188.434 77.656C188.93 77.656 189.386 77.552 189.802 77.344C190.218 77.12 190.57 76.816 190.858 76.432C191.162 76.032 191.394 75.56 191.554 75.016C191.714 74.472 191.794 73.864 191.794 73.192C191.794 72.52 191.714 71.912 191.554 71.368C191.394 70.808 191.162 70.328 190.858 69.928C190.57 69.528 190.218 69.224 189.802 69.016C189.386 68.792 188.93 68.68 188.434 68.68C187.938 68.68 187.482 68.792 187.066 69.016C186.65 69.224 186.29 69.528 185.986 69.928C185.698 70.328 185.474 70.808 185.314 71.368C185.154 71.912 185.074 72.52 185.074 73.192C185.074 73.864 185.154 74.472 185.314 75.016C185.474 75.56 185.698 76.032 185.986 76.432C186.29 76.816 186.65 77.12 187.066 77.344C187.482 77.552 187.938 77.656 188.434 77.656ZM197.004 84.016C196.732 84.016 196.484 83.992 196.26 83.944C196.036 83.912 195.828 83.856 195.636 83.776L196.02 82.216C196.148 82.248 196.292 82.28 196.452 82.312C196.612 82.36 196.764 82.384 196.908 82.384C197.58 82.384 198.124 82.144 198.54 81.664C198.972 81.2 199.308 80.608 199.548 79.888L199.812 79.024L195.132 67.336H197.172L199.548 73.792C199.724 74.304 199.908 74.848 200.1 75.424C200.308 75.984 200.5 76.536 200.676 77.08H200.772C200.948 76.552 201.116 76 201.276 75.424C201.436 74.848 201.596 74.304 201.756 73.792L203.844 67.336H205.764L201.372 79.96C201.164 80.536 200.932 81.072 200.676 81.568C200.42 82.064 200.116 82.488 199.764 82.84C199.412 83.208 199.012 83.496 198.564 83.704C198.116 83.912 197.596 84.016 197.004 84.016ZM212.82 79V67.336H214.452L214.62 69.016H214.692C215.204 68.456 215.756 67.992 216.348 67.624C216.956 67.24 217.612 67.048 218.316 67.048C219.212 67.048 219.908 67.248 220.404 67.648C220.916 68.032 221.292 68.576 221.532 69.28C222.14 68.608 222.748 68.072 223.356 67.672C223.98 67.256 224.652 67.048 225.372 67.048C226.572 67.048 227.46 67.432 228.036 68.2C228.628 68.968 228.924 70.104 228.924 71.608V79H226.956V71.872C226.956 70.768 226.78 69.976 226.428 69.496C226.076 69 225.532 68.752 224.796 68.752C223.916 68.752 222.94 69.352 221.868 70.552V79H219.9V71.872C219.9 70.768 219.724 69.976 219.372 69.496C219.02 69 218.468 68.752 217.716 68.752C216.836 68.752 215.86 69.352 214.788 70.552V79H212.82ZM232.718 79V67.336H234.686V79H232.718ZM233.726 64.936C233.342 64.936 233.014 64.816 232.742 64.576C232.486 64.336 232.358 64.032 232.358 63.664C232.358 63.28 232.486 62.976 232.742 62.752C233.014 62.512 233.342 62.392 233.726 62.392C234.11 62.392 234.43 62.512 234.686 62.752C234.958 62.976 235.094 63.28 235.094 63.664C235.094 64.032 234.958 64.336 234.686 64.576C234.43 64.816 234.11 64.936 233.726 64.936ZM240.712 79.288C239.96 79.288 239.424 79.064 239.104 78.616C238.784 78.168 238.624 77.512 238.624 76.648V61.912H240.592V76.792C240.592 77.112 240.648 77.336 240.76 77.464C240.872 77.592 241 77.656 241.144 77.656C241.208 77.656 241.264 77.656 241.312 77.656C241.376 77.656 241.464 77.64 241.576 77.608L241.84 79.096C241.712 79.16 241.56 79.208 241.384 79.24C241.208 79.272 240.984 79.288 240.712 79.288ZM244.741 79V61.912H246.685V73.48H246.757L251.725 67.336H253.909L249.997 72.016L254.437 79H252.277L248.869 73.384L246.685 75.928V79H244.741ZM257.961 79.288C257.561 79.288 257.217 79.152 256.929 78.88C256.657 78.592 256.521 78.232 256.521 77.8C256.521 77.336 256.657 76.968 256.929 76.696C257.217 76.408 257.561 76.264 257.961 76.264C258.345 76.264 258.673 76.408 258.945 76.696C259.233 76.968 259.377 77.336 259.377 77.8C259.377 78.232 259.233 78.592 258.945 78.88C258.673 79.152 258.345 79.288 257.961 79.288ZM270.446 79V72.904L265.718 63.256H267.854L269.894 67.696C270.15 68.272 270.398 68.84 270.638 69.4C270.878 69.96 271.134 70.536 271.406 71.128H271.502C271.774 70.536 272.046 69.96 272.318 69.4C272.59 68.84 272.846 68.272 273.086 67.696L275.102 63.256H277.19L272.462 72.904V79H270.446ZM282.676 79.288C281.956 79.288 281.268 79.152 280.612 78.88C279.972 78.608 279.404 78.216 278.908 77.704C278.412 77.176 278.012 76.536 277.708 75.784C277.42 75.016 277.276 74.152 277.276 73.192C277.276 72.216 277.42 71.352 277.708 70.6C278.012 69.832 278.412 69.184 278.908 68.656C279.404 68.128 279.972 67.728 280.612 67.456C281.268 67.184 281.956 67.048 282.676 67.048C283.396 67.048 284.076 67.184 284.716 67.456C285.372 67.728 285.948 68.128 286.444 68.656C286.94 69.184 287.332 69.832 287.62 70.6C287.924 71.352 288.076 72.216 288.076 73.192C288.076 74.152 287.924 75.016 287.62 75.784C287.332 76.536 286.94 77.176 286.444 77.704C285.948 78.216 285.372 78.608 284.716 78.88C284.076 79.152 283.396 79.288 282.676 79.288ZM282.676 77.656C283.172 77.656 283.628 77.552 284.044 77.344C284.46 77.12 284.812 76.816 285.1 76.432C285.404 76.032 285.636 75.56 285.796 75.016C285.956 74.472 286.036 73.864 286.036 73.192C286.036 72.52 285.956 71.912 285.796 71.368C285.636 70.808 285.404 70.328 285.1 69.928C284.812 69.528 284.46 69.224 284.044 69.016C283.628 68.792 283.172 68.68 282.676 68.68C282.18 68.68 281.724 68.792 281.308 69.016C280.892 69.224 280.532 69.528 280.228 69.928C279.94 70.328 279.716 70.808 279.556 71.368C279.396 71.912 279.316 72.52 279.316 73.192C279.316 73.864 279.396 74.472 279.556 75.016C279.716 75.56 279.94 76.032 280.228 76.432C280.532 76.816 280.892 77.12 281.308 77.344C281.724 77.552 282.18 77.656 282.676 77.656ZM294.556 79.288C293.308 79.288 292.396 78.904 291.82 78.136C291.26 77.368 290.98 76.232 290.98 74.728V67.336H292.972V74.464C292.972 75.568 293.14 76.368 293.476 76.864C293.828 77.344 294.388 77.584 295.156 77.584C295.764 77.584 296.3 77.432 296.764 77.128C297.228 76.808 297.74 76.304 298.3 75.616V67.336H300.268V79H298.636L298.468 77.176H298.396C297.852 77.816 297.276 78.328 296.668 78.712C296.076 79.096 295.372 79.288 294.556 79.288ZM310.855 79L307.615 67.336H309.631L311.359 74.08C311.487 74.64 311.607 75.184 311.719 75.712C311.831 76.24 311.943 76.776 312.055 77.32H312.151C312.279 76.776 312.407 76.24 312.535 75.712C312.663 75.168 312.799 74.624 312.943 74.08L314.743 67.336H316.663L318.487 74.08C318.631 74.64 318.767 75.184 318.895 75.712C319.039 76.24 319.175 76.776 319.303 77.32H319.399C319.527 76.776 319.647 76.24 319.759 75.712C319.871 75.184 319.991 74.64 320.119 74.08L321.823 67.336H323.695L320.575 79H318.175L316.495 72.736C316.351 72.176 316.215 71.624 316.087 71.08C315.975 70.536 315.847 69.968 315.703 69.376H315.607C315.479 69.968 315.351 70.544 315.223 71.104C315.095 71.648 314.951 72.2 314.791 72.76L313.159 79H310.855ZM330.676 79.288C329.956 79.288 329.268 79.152 328.612 78.88C327.972 78.608 327.404 78.216 326.908 77.704C326.412 77.176 326.012 76.536 325.708 75.784C325.42 75.016 325.276 74.152 325.276 73.192C325.276 72.216 325.42 71.352 325.708 70.6C326.012 69.832 326.412 69.184 326.908 68.656C327.404 68.128 327.972 67.728 328.612 67.456C329.268 67.184 329.956 67.048 330.676 67.048C331.396 67.048 332.076 67.184 332.716 67.456C333.372 67.728 333.948 68.128 334.444 68.656C334.94 69.184 335.332 69.832 335.62 70.6C335.924 71.352 336.076 72.216 336.076 73.192C336.076 74.152 335.924 75.016 335.62 75.784C335.332 76.536 334.94 77.176 334.444 77.704C333.948 78.216 333.372 78.608 332.716 78.88C332.076 79.152 331.396 79.288 330.676 79.288ZM330.676 77.656C331.172 77.656 331.628 77.552 332.044 77.344C332.46 77.12 332.812 76.816 333.1 76.432C333.404 76.032 333.636 75.56 333.796 75.016C333.956 74.472 334.036 73.864 334.036 73.192C334.036 72.52 333.956 71.912 333.796 71.368C333.636 70.808 333.404 70.328 333.1 69.928C332.812 69.528 332.46 69.224 332.044 69.016C331.628 68.792 331.172 68.68 330.676 68.68C330.18 68.68 329.724 68.792 329.308 69.016C328.892 69.224 328.532 69.528 328.228 69.928C327.94 70.328 327.716 70.808 327.556 71.368C327.396 71.912 327.316 72.52 327.316 73.192C327.316 73.864 327.396 74.472 327.556 75.016C327.716 75.56 327.94 76.032 328.228 76.432C328.532 76.816 328.892 77.12 329.308 77.344C329.724 77.552 330.18 77.656 330.676 77.656ZM339.148 79V67.336H340.78L340.948 69.016H341.02C341.58 68.456 342.164 67.992 342.772 67.624C343.396 67.24 344.116 67.048 344.932 67.048C346.164 67.048 347.06 67.432 347.62 68.2C348.196 68.968 348.484 70.104 348.484 71.608V79H346.516V71.872C346.516 70.768 346.34 69.976 345.988 69.496C345.636 69 345.076 68.752 344.308 68.752C343.7 68.752 343.164 68.904 342.7 69.208C342.236 69.512 341.708 69.96 341.116 70.552V79H339.148ZM352.681 68.656L352.297 64.648L352.225 62.44H354.337L354.265 64.648L353.881 68.656H352.681ZM361.921 79.288C361.297 79.288 360.769 79.192 360.337 79C359.921 78.808 359.577 78.544 359.305 78.208C359.049 77.872 358.865 77.464 358.753 76.984C358.641 76.504 358.585 75.976 358.585 75.4V68.944H356.857V67.456L358.681 67.336L358.921 64.072H360.577V67.336H363.721V68.944H360.577V75.424C360.577 76.144 360.705 76.704 360.961 77.104C361.233 77.488 361.705 77.68 362.377 77.68C362.585 77.68 362.809 77.648 363.049 77.584C363.289 77.52 363.505 77.448 363.697 77.368L364.081 78.856C363.761 78.968 363.409 79.064 363.025 79.144C362.657 79.24 362.289 79.288 361.921 79.288ZM371.163 79V61.912H373.131V66.568L373.059 68.968C373.619 68.44 374.203 67.992 374.811 67.624C375.419 67.24 376.131 67.048 376.947 67.048C378.179 67.048 379.075 67.432 379.635 68.2C380.211 68.968 380.499 70.104 380.499 71.608V79H378.531V71.872C378.531 70.768 378.355 69.976 378.003 69.496C377.651 69 377.091 68.752 376.323 68.752C375.715 68.752 375.179 68.904 374.715 69.208C374.251 69.512 373.723 69.96 373.131 70.552V79H371.163ZM386.906 79.288C385.93 79.288 385.114 79 384.458 78.424C383.818 77.848 383.498 77.032 383.498 75.976C383.498 74.696 384.066 73.72 385.202 73.048C386.338 72.36 388.154 71.88 390.65 71.608C390.65 71.24 390.61 70.88 390.53 70.528C390.466 70.176 390.346 69.864 390.17 69.592C389.994 69.32 389.746 69.104 389.426 68.944C389.122 68.768 388.73 68.68 388.25 68.68C387.578 68.68 386.946 68.808 386.354 69.064C385.762 69.32 385.234 69.608 384.77 69.928L384.002 68.56C384.546 68.208 385.21 67.872 385.994 67.552C386.778 67.216 387.642 67.048 388.586 67.048C390.01 67.048 391.042 67.488 391.682 68.368C392.322 69.232 392.642 70.392 392.642 71.848V79H391.01L390.842 77.608H390.77C390.21 78.072 389.61 78.472 388.97 78.808C388.33 79.128 387.642 79.288 386.906 79.288ZM387.482 77.704C388.042 77.704 388.57 77.576 389.066 77.32C389.562 77.048 390.09 76.656 390.65 76.144V72.904C389.674 73.032 388.85 73.184 388.178 73.36C387.522 73.536 386.986 73.744 386.57 73.984C386.17 74.224 385.874 74.504 385.682 74.824C385.506 75.128 385.418 75.464 385.418 75.832C385.418 76.504 385.618 76.984 386.018 77.272C386.418 77.56 386.906 77.704 387.482 77.704ZM398.832 79L394.632 67.336H396.672L398.88 73.96C399.056 74.536 399.232 75.112 399.408 75.688C399.6 76.264 399.784 76.832 399.96 77.392H400.056C400.232 76.832 400.408 76.264 400.584 75.688C400.76 75.112 400.936 74.536 401.112 73.96L403.32 67.336H405.264L401.136 79H398.832ZM412.149 79.288C411.365 79.288 410.629 79.152 409.941 78.88C409.269 78.592 408.677 78.192 408.165 77.68C407.669 77.152 407.277 76.512 406.989 75.76C406.701 75.008 406.557 74.152 406.557 73.192C406.557 72.232 406.701 71.376 406.989 70.624C407.293 69.856 407.685 69.208 408.165 68.68C408.661 68.152 409.221 67.752 409.845 67.48C410.469 67.192 411.117 67.048 411.789 67.048C412.525 67.048 413.181 67.176 413.757 67.432C414.349 67.688 414.837 68.056 415.221 68.536C415.621 69.016 415.925 69.592 416.133 70.264C416.341 70.936 416.445 71.688 416.445 72.52C416.445 72.728 416.437 72.936 416.421 73.144C416.421 73.336 416.405 73.504 416.373 73.648H408.501C408.581 74.896 408.965 75.888 409.653 76.624C410.357 77.344 411.269 77.704 412.389 77.704C412.949 77.704 413.461 77.624 413.925 77.464C414.405 77.288 414.861 77.064 415.293 76.792L415.989 78.088C415.477 78.408 414.909 78.688 414.285 78.928C413.661 79.168 412.949 79.288 412.149 79.288ZM408.477 72.232H414.717C414.717 71.048 414.461 70.152 413.949 69.544C413.453 68.92 412.749 68.608 411.837 68.608C411.421 68.608 411.021 68.688 410.637 68.848C410.269 69.008 409.933 69.248 409.629 69.568C409.325 69.872 409.069 70.248 408.861 70.696C408.669 71.144 408.541 71.656 408.477 72.232ZM427.804 79.288C427.18 79.288 426.652 79.192 426.22 79C425.804 78.808 425.46 78.544 425.188 78.208C424.932 77.872 424.748 77.464 424.636 76.984C424.524 76.504 424.468 75.976 424.468 75.4V68.944H422.74V67.456L424.564 67.336L424.804 64.072H426.46V67.336H429.604V68.944H426.46V75.424C426.46 76.144 426.588 76.704 426.844 77.104C427.116 77.488 427.588 77.68 428.26 77.68C428.468 77.68 428.692 77.648 428.932 77.584C429.172 77.52 429.388 77.448 429.58 77.368L429.964 78.856C429.644 78.968 429.292 79.064 428.908 79.144C428.54 79.24 428.172 79.288 427.804 79.288ZM436.449 79.288C435.729 79.288 435.041 79.152 434.385 78.88C433.745 78.608 433.177 78.216 432.681 77.704C432.185 77.176 431.785 76.536 431.481 75.784C431.193 75.016 431.049 74.152 431.049 73.192C431.049 72.216 431.193 71.352 431.481 70.6C431.785 69.832 432.185 69.184 432.681 68.656C433.177 68.128 433.745 67.728 434.385 67.456C435.041 67.184 435.729 67.048 436.449 67.048C437.169 67.048 437.849 67.184 438.489 67.456C439.145 67.728 439.721 68.128 440.217 68.656C440.713 69.184 441.105 69.832 441.393 70.6C441.697 71.352 441.849 72.216 441.849 73.192C441.849 74.152 441.697 75.016 441.393 75.784C441.105 76.536 440.713 77.176 440.217 77.704C439.721 78.216 439.145 78.608 438.489 78.88C437.849 79.152 437.169 79.288 436.449 79.288ZM436.449 77.656C436.945 77.656 437.401 77.552 437.817 77.344C438.233 77.12 438.585 76.816 438.873 76.432C439.177 76.032 439.409 75.56 439.569 75.016C439.729 74.472 439.809 73.864 439.809 73.192C439.809 72.52 439.729 71.912 439.569 71.368C439.409 70.808 439.177 70.328 438.873 69.928C438.585 69.528 438.233 69.224 437.817 69.016C437.401 68.792 436.945 68.68 436.449 68.68C435.953 68.68 435.497 68.792 435.081 69.016C434.665 69.224 434.305 69.528 434.001 69.928C433.713 70.328 433.489 70.808 433.329 71.368C433.169 71.912 433.089 72.52 433.089 73.192C433.089 73.864 433.169 74.472 433.329 75.016C433.489 75.56 433.713 76.032 434.001 76.432C434.305 76.816 434.665 77.12 435.081 77.344C435.497 77.552 435.953 77.656 436.449 77.656ZM139.952 115.288C138.48 115.288 137.304 114.76 136.424 113.704C135.56 112.648 135.128 111.144 135.128 109.192C135.128 108.248 135.264 107.4 135.536 106.648C135.824 105.88 136.2 105.232 136.664 104.704C137.128 104.176 137.664 103.768 138.272 103.48C138.88 103.192 139.52 103.048 140.192 103.048C140.864 103.048 141.448 103.168 141.944 103.408C142.44 103.648 142.944 103.976 143.456 104.392L143.36 102.4V97.912H145.352V115H143.72L143.552 113.632H143.48C143.016 114.08 142.48 114.472 141.872 114.808C141.28 115.128 140.64 115.288 139.952 115.288ZM140.384 113.632C140.928 113.632 141.44 113.504 141.92 113.248C142.4 112.976 142.88 112.568 143.36 112.024V105.928C142.864 105.48 142.384 105.168 141.92 104.992C141.472 104.8 141.008 104.704 140.528 104.704C140.064 104.704 139.624 104.816 139.208 105.04C138.808 105.248 138.456 105.552 138.152 105.952C137.848 106.336 137.608 106.8 137.432 107.344C137.256 107.888 137.168 108.496 137.168 109.168C137.168 110.576 137.448 111.672 138.008 112.456C138.568 113.24 139.36 113.632 140.384 113.632ZM154.009 115.288C153.225 115.288 152.489 115.152 151.801 114.88C151.129 114.592 150.537 114.192 150.025 113.68C149.529 113.152 149.137 112.512 148.849 111.76C148.561 111.008 148.417 110.152 148.417 109.192C148.417 108.232 148.561 107.376 148.849 106.624C149.153 105.856 149.545 105.208 150.025 104.68C150.521 104.152 151.081 103.752 151.705 103.48C152.329 103.192 152.977 103.048 153.648 103.048C154.385 103.048 155.041 103.176 155.617 103.432C156.209 103.688 156.697 104.056 157.081 104.536C157.481 105.016 157.785 105.592 157.993 106.264C158.201 106.936 158.305 107.688 158.305 108.52C158.305 108.728 158.297 108.936 158.281 109.144C158.281 109.336 158.265 109.504 158.233 109.648H150.361C150.441 110.896 150.825 111.888 151.513 112.624C152.217 113.344 153.129 113.704 154.249 113.704C154.809 113.704 155.321 113.624 155.785 113.464C156.265 113.288 156.721 113.064 157.153 112.792L157.849 114.088C157.337 114.408 156.769 114.688 156.145 114.928C155.521 115.168 154.809 115.288 154.009 115.288ZM150.337 108.232H156.577C156.577 107.048 156.321 106.152 155.809 105.544C155.313 104.92 154.609 104.608 153.697 104.608C153.281 104.608 152.881 104.688 152.497 104.848C152.129 105.008 151.793 105.248 151.489 105.568C151.185 105.872 150.929 106.248 150.721 106.696C150.529 107.144 150.401 107.656 150.337 108.232ZM163.547 115.288C162.571 115.288 161.755 115 161.099 114.424C160.459 113.848 160.139 113.032 160.139 111.976C160.139 110.696 160.707 109.72 161.843 109.048C162.979 108.36 164.795 107.88 167.291 107.608C167.291 107.24 167.251 106.88 167.171 106.528C167.107 106.176 166.987 105.864 166.811 105.592C166.635 105.32 166.387 105.104 166.067 104.944C165.763 104.768 165.371 104.68 164.891 104.68C164.219 104.68 163.587 104.808 162.995 105.064C162.403 105.32 161.875 105.608 161.411 105.928L160.643 104.56C161.187 104.208 161.851 103.872 162.635 103.552C163.419 103.216 164.283 103.048 165.227 103.048C166.651 103.048 167.683 103.488 168.323 104.368C168.963 105.232 169.283 106.392 169.283 107.848V115H167.651L167.483 113.608H167.411C166.851 114.072 166.251 114.472 165.611 114.808C164.971 115.128 164.283 115.288 163.547 115.288ZM164.123 113.704C164.683 113.704 165.211 113.576 165.707 113.32C166.203 113.048 166.731 112.656 167.291 112.144V108.904C166.315 109.032 165.491 109.184 164.819 109.36C164.163 109.536 163.627 109.744 163.211 109.984C162.811 110.224 162.515 110.504 162.323 110.824C162.147 111.128 162.059 111.464 162.059 111.832C162.059 112.504 162.259 112.984 162.659 113.272C163.059 113.56 163.547 113.704 164.123 113.704ZM175.04 115.288C174.288 115.288 173.752 115.064 173.432 114.616C173.112 114.168 172.952 113.512 172.952 112.648V97.912H174.92V112.792C174.92 113.112 174.976 113.336 175.088 113.464C175.2 113.592 175.328 113.656 175.472 113.656C175.536 113.656 175.592 113.656 175.64 113.656C175.704 113.656 175.792 113.64 175.904 113.608L176.168 115.096C176.04 115.16 175.888 115.208 175.712 115.24C175.536 115.272 175.312 115.288 175.04 115.288ZM185.722 115L182.482 103.336H184.498L186.226 110.08C186.354 110.64 186.474 111.184 186.586 111.712C186.698 112.24 186.81 112.776 186.922 113.32H187.018C187.146 112.776 187.274 112.24 187.402 111.712C187.53 111.168 187.666 110.624 187.81 110.08L189.61 103.336H191.53L193.354 110.08C193.498 110.64 193.634 111.184 193.762 111.712C193.906 112.24 194.042 112.776 194.17 113.32H194.266C194.394 112.776 194.514 112.24 194.626 111.712C194.738 111.184 194.858 110.64 194.986 110.08L196.69 103.336H198.562L195.442 115H193.042L191.362 108.736C191.218 108.176 191.082 107.624 190.954 107.08C190.842 106.536 190.714 105.968 190.57 105.376H190.474C190.346 105.968 190.218 106.544 190.09 107.104C189.962 107.648 189.818 108.2 189.658 108.76L188.026 115H185.722ZM201.101 115V103.336H203.069V115H201.101ZM202.109 100.936C201.725 100.936 201.397 100.816 201.125 100.576C200.869 100.336 200.741 100.032 200.741 99.664C200.741 99.28 200.869 98.976 201.125 98.752C201.397 98.512 201.725 98.392 202.109 98.392C202.493 98.392 202.813 98.512 203.069 98.752C203.341 98.976 203.477 99.28 203.477 99.664C203.477 100.032 203.341 100.336 203.069 100.576C202.813 100.816 202.493 100.936 202.109 100.936ZM210.679 115.288C210.055 115.288 209.527 115.192 209.095 115C208.679 114.808 208.335 114.544 208.063 114.208C207.807 113.872 207.623 113.464 207.511 112.984C207.399 112.504 207.343 111.976 207.343 111.4V104.944H205.615V103.456L207.439 103.336L207.679 100.072H209.335V103.336H212.479V104.944H209.335V111.424C209.335 112.144 209.463 112.704 209.719 113.104C209.991 113.488 210.463 113.68 211.135 113.68C211.343 113.68 211.567 113.648 211.807 113.584C212.047 113.52 212.263 113.448 212.455 113.368L212.839 114.856C212.519 114.968 212.167 115.064 211.783 115.144C211.415 115.24 211.047 115.288 210.679 115.288ZM215.116 115V97.912H217.084V102.568L217.012 104.968C217.572 104.44 218.156 103.992 218.764 103.624C219.372 103.24 220.084 103.048 220.9 103.048C222.132 103.048 223.028 103.432 223.588 104.2C224.164 104.968 224.452 106.104 224.452 107.608V115H222.484V107.872C222.484 106.768 222.308 105.976 221.956 105.496C221.604 105 221.044 104.752 220.276 104.752C219.668 104.752 219.132 104.904 218.668 105.208C218.204 105.512 217.676 105.96 217.084 106.552V115H215.116ZM232.976 115V97.912H234.944V102.568L234.872 104.968C235.432 104.44 236.016 103.992 236.624 103.624C237.232 103.24 237.944 103.048 238.76 103.048C239.992 103.048 240.888 103.432 241.448 104.2C242.024 104.968 242.312 106.104 242.312 107.608V115H240.344V107.872C240.344 106.768 240.168 105.976 239.816 105.496C239.464 105 238.904 104.752 238.136 104.752C237.528 104.752 236.992 104.904 236.528 105.208C236.064 105.512 235.536 105.96 234.944 106.552V115H232.976ZM246.031 115V103.336H247.999V115H246.031ZM247.039 100.936C246.655 100.936 246.327 100.816 246.055 100.576C245.799 100.336 245.671 100.032 245.671 99.664C245.671 99.28 245.799 98.976 246.055 98.752C246.327 98.512 246.655 98.392 247.039 98.392C247.423 98.392 247.743 98.512 247.999 98.752C248.271 98.976 248.407 99.28 248.407 99.664C248.407 100.032 248.271 100.336 247.999 100.576C247.743 100.816 247.423 100.936 247.039 100.936ZM251.937 115V103.336H253.569L253.737 105.016H253.809C254.321 104.456 254.873 103.992 255.465 103.624C256.073 103.24 256.729 103.048 257.433 103.048C258.329 103.048 259.025 103.248 259.521 103.648C260.033 104.032 260.409 104.576 260.649 105.28C261.257 104.608 261.865 104.072 262.473 103.672C263.097 103.256 263.769 103.048 264.489 103.048C265.689 103.048 266.577 103.432 267.153 104.2C267.745 104.968 268.041 106.104 268.041 107.608V115H266.073V107.872C266.073 106.768 265.897 105.976 265.545 105.496C265.193 105 264.649 104.752 263.913 104.752C263.033 104.752 262.057 105.352 260.985 106.552V115H259.017V107.872C259.017 106.768 258.841 105.976 258.489 105.496C258.137 105 257.585 104.752 256.833 104.752C255.953 104.752 254.977 105.352 253.905 106.552V115H251.937ZM281.176 115.288C280.456 115.288 279.768 115.152 279.112 114.88C278.472 114.608 277.904 114.216 277.408 113.704C276.912 113.176 276.512 112.536 276.208 111.784C275.92 111.016 275.776 110.152 275.776 109.192C275.776 108.216 275.92 107.352 276.208 106.6C276.512 105.832 276.912 105.184 277.408 104.656C277.904 104.128 278.472 103.728 279.112 103.456C279.768 103.184 280.456 103.048 281.176 103.048C281.896 103.048 282.576 103.184 283.216 103.456C283.872 103.728 284.448 104.128 284.944 104.656C285.44 105.184 285.832 105.832 286.12 106.6C286.424 107.352 286.576 108.216 286.576 109.192C286.576 110.152 286.424 111.016 286.12 111.784C285.832 112.536 285.44 113.176 284.944 113.704C284.448 114.216 283.872 114.608 283.216 114.88C282.576 115.152 281.896 115.288 281.176 115.288ZM281.176 113.656C281.672 113.656 282.128 113.552 282.544 113.344C282.96 113.12 283.312 112.816 283.6 112.432C283.904 112.032 284.136 111.56 284.296 111.016C284.456 110.472 284.536 109.864 284.536 109.192C284.536 108.52 284.456 107.912 284.296 107.368C284.136 106.808 283.904 106.328 283.6 105.928C283.312 105.528 282.96 105.224 282.544 105.016C282.128 104.792 281.672 104.68 281.176 104.68C280.68 104.68 280.224 104.792 279.808 105.016C279.392 105.224 279.032 105.528 278.728 105.928C278.44 106.328 278.216 106.808 278.056 107.368C277.896 107.912 277.816 108.52 277.816 109.192C277.816 109.864 277.896 110.472 278.056 111.016C278.216 111.56 278.44 112.032 278.728 112.432C279.032 112.816 279.392 113.12 279.808 113.344C280.224 113.552 280.68 113.656 281.176 113.656ZM289.648 115V103.336H291.28L291.448 105.016H291.52C292.08 104.456 292.664 103.992 293.272 103.624C293.896 103.24 294.616 103.048 295.432 103.048C296.664 103.048 297.56 103.432 298.12 104.2C298.696 104.968 298.984 106.104 298.984 107.608V115H297.016V107.872C297.016 106.768 296.84 105.976 296.488 105.496C296.136 105 295.576 104.752 294.808 104.752C294.2 104.752 293.664 104.904 293.2 105.208C292.736 105.512 292.208 105.96 291.616 106.552V115H289.648ZM307.381 115.288C306.613 115.288 305.893 115.152 305.221 114.88C304.549 114.608 303.965 114.216 303.469 113.704C302.989 113.176 302.605 112.536 302.317 111.784C302.045 111.016 301.909 110.152 301.909 109.192C301.909 108.216 302.061 107.352 302.365 106.6C302.669 105.832 303.077 105.184 303.589 104.656C304.101 104.128 304.693 103.728 305.365 103.456C306.053 103.184 306.773 103.048 307.525 103.048C308.293 103.048 308.949 103.184 309.493 103.456C310.037 103.728 310.517 104.048 310.933 104.416L309.925 105.712C309.589 105.408 309.229 105.16 308.845 104.968C308.477 104.776 308.061 104.68 307.597 104.68C307.069 104.68 306.581 104.792 306.133 105.016C305.685 105.224 305.301 105.528 304.981 105.928C304.661 106.328 304.405 106.808 304.213 107.368C304.037 107.912 303.949 108.52 303.949 109.192C303.949 109.864 304.037 110.472 304.213 111.016C304.389 111.56 304.629 112.032 304.933 112.432C305.253 112.816 305.637 113.12 306.085 113.344C306.533 113.552 307.021 113.656 307.549 113.656C308.093 113.656 308.589 113.544 309.037 113.32C309.501 113.08 309.917 112.8 310.285 112.48L311.149 113.8C310.621 114.264 310.037 114.632 309.397 114.904C308.757 115.16 308.085 115.288 307.381 115.288ZM317.93 115.288C317.146 115.288 316.41 115.152 315.722 114.88C315.05 114.592 314.458 114.192 313.946 113.68C313.45 113.152 313.058 112.512 312.77 111.76C312.482 111.008 312.338 110.152 312.338 109.192C312.338 108.232 312.482 107.376 312.77 106.624C313.074 105.856 313.466 105.208 313.946 104.68C314.442 104.152 315.002 103.752 315.626 103.48C316.25 103.192 316.898 103.048 317.57 103.048C318.306 103.048 318.962 103.176 319.538 103.432C320.13 103.688 320.618 104.056 321.002 104.536C321.402 105.016 321.706 105.592 321.914 106.264C322.122 106.936 322.226 107.688 322.226 108.52C322.226 108.728 322.218 108.936 322.202 109.144C322.202 109.336 322.186 109.504 322.154 109.648H314.282C314.362 110.896 314.746 111.888 315.434 112.624C316.138 113.344 317.05 113.704 318.17 113.704C318.73 113.704 319.242 113.624 319.706 113.464C320.186 113.288 320.642 113.064 321.074 112.792L321.77 114.088C321.258 114.408 320.69 114.688 320.066 114.928C319.442 115.168 318.73 115.288 317.93 115.288ZM314.258 108.232H320.498C320.498 107.048 320.242 106.152 319.73 105.544C319.234 104.92 318.53 104.608 317.618 104.608C317.202 104.608 316.802 104.688 316.418 104.848C316.05 105.008 315.714 105.248 315.41 105.568C315.106 105.872 314.85 106.248 314.642 106.696C314.45 107.144 314.322 107.656 314.258 108.232ZM329.913 115V97.912H331.881V102.568L331.809 104.968C332.369 104.44 332.953 103.992 333.561 103.624C334.169 103.24 334.881 103.048 335.697 103.048C336.929 103.048 337.825 103.432 338.385 104.2C338.961 104.968 339.249 106.104 339.249 107.608V115H337.281V107.872C337.281 106.768 337.105 105.976 336.753 105.496C336.401 105 335.841 104.752 335.073 104.752C334.465 104.752 333.929 104.904 333.465 105.208C333.001 105.512 332.473 105.96 331.881 106.552V115H329.913ZM347.696 115.288C346.912 115.288 346.176 115.152 345.488 114.88C344.816 114.592 344.224 114.192 343.712 113.68C343.216 113.152 342.824 112.512 342.536 111.76C342.248 111.008 342.104 110.152 342.104 109.192C342.104 108.232 342.248 107.376 342.536 106.624C342.84 105.856 343.232 105.208 343.712 104.68C344.208 104.152 344.768 103.752 345.392 103.48C346.016 103.192 346.664 103.048 347.336 103.048C348.072 103.048 348.728 103.176 349.304 103.432C349.896 103.688 350.384 104.056 350.768 104.536C351.168 105.016 351.472 105.592 351.68 106.264C351.888 106.936 351.992 107.688 351.992 108.52C351.992 108.728 351.984 108.936 351.968 109.144C351.968 109.336 351.952 109.504 351.92 109.648H344.048C344.128 110.896 344.512 111.888 345.2 112.624C345.904 113.344 346.816 113.704 347.936 113.704C348.496 113.704 349.008 113.624 349.472 113.464C349.952 113.288 350.408 113.064 350.84 112.792L351.536 114.088C351.024 114.408 350.456 114.688 349.832 114.928C349.208 115.168 348.496 115.288 347.696 115.288ZM344.024 108.232H350.264C350.264 107.048 350.008 106.152 349.496 105.544C349 104.92 348.296 104.608 347.384 104.608C346.968 104.608 346.568 104.688 346.184 104.848C345.816 105.008 345.48 105.248 345.176 105.568C344.872 105.872 344.616 106.248 344.408 106.696C344.216 107.144 344.088 107.656 344.024 108.232ZM361.767 115.288C361.015 115.288 360.479 115.064 360.159 114.616C359.839 114.168 359.679 113.512 359.679 112.648V97.912H361.647V112.792C361.647 113.112 361.703 113.336 361.815 113.464C361.927 113.592 362.055 113.656 362.199 113.656C362.263 113.656 362.319 113.656 362.367 113.656C362.431 113.656 362.519 113.64 362.631 113.608L362.895 115.096C362.767 115.16 362.615 115.208 362.439 115.24C362.263 115.272 362.039 115.288 361.767 115.288ZM370.524 115.288C369.74 115.288 369.004 115.152 368.316 114.88C367.644 114.592 367.052 114.192 366.54 113.68C366.044 113.152 365.652 112.512 365.364 111.76C365.076 111.008 364.932 110.152 364.932 109.192C364.932 108.232 365.076 107.376 365.364 106.624C365.668 105.856 366.06 105.208 366.54 104.68C367.036 104.152 367.596 103.752 368.22 103.48C368.844 103.192 369.492 103.048 370.164 103.048C370.9 103.048 371.556 103.176 372.132 103.432C372.724 103.688 373.212 104.056 373.596 104.536C373.996 105.016 374.3 105.592 374.508 106.264C374.716 106.936 374.82 107.688 374.82 108.52C374.82 108.728 374.812 108.936 374.796 109.144C374.796 109.336 374.78 109.504 374.748 109.648H366.876C366.956 110.896 367.34 111.888 368.028 112.624C368.732 113.344 369.644 113.704 370.764 113.704C371.324 113.704 371.836 113.624 372.3 113.464C372.78 113.288 373.236 113.064 373.668 112.792L374.364 114.088C373.852 114.408 373.284 114.688 372.66 114.928C372.036 115.168 371.324 115.288 370.524 115.288ZM366.852 108.232H373.092C373.092 107.048 372.836 106.152 372.324 105.544C371.828 104.92 371.124 104.608 370.212 104.608C369.796 104.608 369.396 104.688 369.012 104.848C368.644 105.008 368.308 105.248 368.004 105.568C367.7 105.872 367.444 106.248 367.236 106.696C367.044 107.144 366.916 107.656 366.852 108.232ZM380.062 115.288C379.086 115.288 378.27 115 377.614 114.424C376.974 113.848 376.654 113.032 376.654 111.976C376.654 110.696 377.222 109.72 378.358 109.048C379.494 108.36 381.31 107.88 383.806 107.608C383.806 107.24 383.766 106.88 383.686 106.528C383.622 106.176 383.502 105.864 383.326 105.592C383.15 105.32 382.902 105.104 382.582 104.944C382.278 104.768 381.886 104.68 381.406 104.68C380.734 104.68 380.102 104.808 379.51 105.064C378.918 105.32 378.39 105.608 377.926 105.928L377.158 104.56C377.702 104.208 378.366 103.872 379.15 103.552C379.934 103.216 380.798 103.048 381.742 103.048C383.166 103.048 384.198 103.488 384.838 104.368C385.478 105.232 385.798 106.392 385.798 107.848V115H384.166L383.998 113.608H383.926C383.366 114.072 382.766 114.472 382.126 114.808C381.486 115.128 380.798 115.288 380.062 115.288ZM380.638 113.704C381.198 113.704 381.726 113.576 382.222 113.32C382.718 113.048 383.246 112.656 383.806 112.144V108.904C382.83 109.032 382.006 109.184 381.334 109.36C380.678 109.536 380.142 109.744 379.726 109.984C379.326 110.224 379.03 110.504 378.838 110.824C378.662 111.128 378.574 111.464 378.574 111.832C378.574 112.504 378.774 112.984 379.174 113.272C379.574 113.56 380.062 113.704 380.638 113.704ZM391.988 115L387.788 103.336H389.828L392.036 109.96C392.212 110.536 392.388 111.112 392.564 111.688C392.756 112.264 392.94 112.832 393.116 113.392H393.212C393.388 112.832 393.564 112.264 393.74 111.688C393.916 111.112 394.092 110.536 394.268 109.96L396.476 103.336H398.42L394.292 115H391.988ZM405.305 115.288C404.521 115.288 403.785 115.152 403.097 114.88C402.425 114.592 401.833 114.192 401.321 113.68C400.825 113.152 400.433 112.512 400.145 111.76C399.857 111.008 399.713 110.152 399.713 109.192C399.713 108.232 399.857 107.376 400.145 106.624C400.449 105.856 400.841 105.208 401.321 104.68C401.817 104.152 402.377 103.752 403.001 103.48C403.625 103.192 404.273 103.048 404.945 103.048C405.681 103.048 406.337 103.176 406.913 103.432C407.505 103.688 407.993 104.056 408.377 104.536C408.777 105.016 409.081 105.592 409.289 106.264C409.497 106.936 409.601 107.688 409.601 108.52C409.601 108.728 409.593 108.936 409.577 109.144C409.577 109.336 409.561 109.504 409.529 109.648H401.657C401.737 110.896 402.121 111.888 402.809 112.624C403.513 113.344 404.425 113.704 405.545 113.704C406.105 113.704 406.617 113.624 407.081 113.464C407.561 113.288 408.017 113.064 408.449 112.792L409.145 114.088C408.633 114.408 408.065 114.688 407.441 114.928C406.817 115.168 406.105 115.288 405.305 115.288ZM401.633 108.232H407.873C407.873 107.048 407.617 106.152 407.105 105.544C406.609 104.92 405.905 104.608 404.993 104.608C404.577 104.608 404.177 104.688 403.793 104.848C403.425 105.008 403.089 105.248 402.785 105.568C402.481 105.872 402.225 106.248 402.017 106.696C401.825 107.144 401.697 107.656 401.633 108.232ZM415.532 115.288C414.7 115.288 413.908 115.136 413.156 114.832C412.404 114.528 411.748 114.144 411.188 113.68L412.172 112.36C412.684 112.776 413.204 113.112 413.732 113.368C414.276 113.624 414.9 113.752 415.604 113.752C416.372 113.752 416.948 113.576 417.332 113.224C417.716 112.872 417.908 112.44 417.908 111.928C417.908 111.624 417.828 111.36 417.668 111.136C417.508 110.912 417.3 110.72 417.044 110.56C416.804 110.384 416.524 110.232 416.204 110.104C415.884 109.976 415.564 109.848 415.244 109.72C414.828 109.576 414.412 109.416 413.996 109.24C413.58 109.048 413.204 108.824 412.868 108.568C412.548 108.296 412.284 107.984 412.076 107.632C411.868 107.28 411.764 106.856 411.764 106.36C411.764 105.896 411.852 105.464 412.028 105.064C412.22 104.648 412.484 104.296 412.82 104.008C413.172 103.704 413.596 103.472 414.092 103.312C414.588 103.136 415.148 103.048 415.772 103.048C416.508 103.048 417.18 103.176 417.788 103.432C418.412 103.688 418.948 104 419.396 104.368L418.46 105.616C418.06 105.312 417.644 105.064 417.212 104.872C416.78 104.68 416.308 104.584 415.796 104.584C415.06 104.584 414.516 104.752 414.164 105.088C413.828 105.424 413.66 105.816 413.66 106.264C413.66 106.536 413.732 106.776 413.876 106.984C414.02 107.176 414.212 107.352 414.452 107.512C414.692 107.656 414.964 107.792 415.268 107.92C415.588 108.032 415.916 108.152 416.252 108.28C416.668 108.44 417.084 108.608 417.5 108.784C417.932 108.96 418.316 109.184 418.652 109.456C418.988 109.712 419.26 110.032 419.468 110.416C419.692 110.8 419.804 111.264 419.804 111.808C419.804 112.288 419.708 112.736 419.516 113.152C419.34 113.568 419.068 113.936 418.7 114.256C418.348 114.576 417.9 114.824 417.356 115C416.828 115.192 416.22 115.288 415.532 115.288ZM423.57 115.288C423.17 115.288 422.826 115.152 422.538 114.88C422.266 114.592 422.13 114.232 422.13 113.8C422.13 113.336 422.266 112.968 422.538 112.696C422.826 112.408 423.17 112.264 423.57 112.264C423.954 112.264 424.282 112.408 424.554 112.696C424.842 112.968 424.986 113.336 424.986 113.8C424.986 114.232 424.842 114.592 424.554 114.88C424.282 115.152 423.954 115.288 423.57 115.288Z" fill="black"/>
</svg>
