<svg width="464" height="146" viewBox="0 0 464 146" fill="none" xmlns="http://www.w3.org/2000/svg">
<rect x="0.5" y="0.5" width="463" height="145" stroke="black"/>
<path d="M53.4982 85.648V65.008H58.5622V66.88H56.1382V83.776H58.5622V85.648H53.4982ZM60.5482 82V79.984C61.5242 79.072 62.4122 78.224 63.2122 77.44C64.0282 76.64 64.7242 75.896 65.3002 75.208C65.8922 74.504 66.3482 73.856 66.6682 73.264C67.0042 72.656 67.1722 72.08 67.1722 71.536C67.1722 70.784 66.9802 70.216 66.5962 69.832C66.2122 69.432 65.6842 69.232 65.0122 69.232C64.4522 69.232 63.9562 69.392 63.5242 69.712C63.0922 70.016 62.6842 70.376 62.3002 70.792L60.3802 68.896C61.1322 68.096 61.9002 67.496 62.6842 67.096C63.4682 66.68 64.4042 66.472 65.4922 66.472C66.2442 66.472 66.9242 66.592 67.5322 66.832C68.1562 67.056 68.6922 67.384 69.1402 67.816C69.5882 68.232 69.9322 68.736 70.1722 69.328C70.4122 69.92 70.5322 70.584 70.5322 71.32C70.5322 71.96 70.3962 72.616 70.1242 73.288C69.8522 73.944 69.4842 74.608 69.0202 75.28C68.5722 75.936 68.0522 76.6 67.4602 77.272C66.8842 77.928 66.2842 78.576 65.6602 79.216C66.0442 79.168 66.4682 79.128 66.9322 79.096C67.4122 79.048 67.8362 79.024 68.2042 79.024H71.2762V82H60.5482ZM73.4438 85.648V83.776H75.8918V66.88H73.4438V65.008H78.5078V85.648H73.4438Z" fill="black"/>
<path d="M142.352 62.288C141.312 62.288 140.352 62.104 139.472 61.736C138.608 61.368 137.864 60.84 137.24 60.152C136.616 59.448 136.128 58.592 135.776 57.584C135.424 56.56 135.248 55.408 135.248 54.128C135.248 52.864 135.424 51.728 135.776 50.72C136.144 49.712 136.648 48.856 137.288 48.152C137.928 47.448 138.688 46.912 139.568 46.544C140.464 46.16 141.432 45.968 142.472 45.968C143.016 45.968 143.512 46.024 143.96 46.136C144.424 46.248 144.84 46.4 145.208 46.592C145.592 46.768 145.928 46.976 146.216 47.216C146.52 47.44 146.784 47.672 147.008 47.912L145.904 49.208C145.504 48.792 145.04 48.44 144.512 48.152C143.984 47.864 143.32 47.72 142.52 47.72C141.72 47.72 141 47.872 140.36 48.176C139.72 48.464 139.176 48.888 138.728 49.448C138.28 49.992 137.928 50.656 137.672 51.44C137.432 52.224 137.312 53.104 137.312 54.08C137.312 55.072 137.424 55.968 137.648 56.768C137.888 57.552 138.224 58.224 138.656 58.784C139.104 59.344 139.648 59.776 140.288 60.08C140.944 60.384 141.696 60.536 142.544 60.536C143.104 60.536 143.632 60.456 144.128 60.296C144.64 60.12 145.056 59.888 145.376 59.6V55.496H142.04V53.84H147.2V60.464C146.688 60.992 146.016 61.432 145.184 61.784C144.352 62.12 143.408 62.288 142.352 62.288ZM155.317 62.288C154.597 62.288 153.909 62.152 153.253 61.88C152.613 61.608 152.045 61.216 151.549 60.704C151.053 60.176 150.653 59.536 150.349 58.784C150.061 58.016 149.917 57.152 149.917 56.192C149.917 55.216 150.061 54.352 150.349 53.6C150.653 52.832 151.053 52.184 151.549 51.656C152.045 51.128 152.613 50.728 153.253 50.456C153.909 50.184 154.597 50.048 155.317 50.048C156.037 50.048 156.717 50.184 157.357 50.456C158.013 50.728 158.589 51.128 159.085 51.656C159.581 52.184 159.973 52.832 160.261 53.6C160.565 54.352 160.717 55.216 160.717 56.192C160.717 57.152 160.565 58.016 160.261 58.784C159.973 59.536 159.581 60.176 159.085 60.704C158.589 61.216 158.013 61.608 157.357 61.88C156.717 62.152 156.037 62.288 155.317 62.288ZM155.317 60.656C155.813 60.656 156.269 60.552 156.685 60.344C157.101 60.12 157.453 59.816 157.741 59.432C158.045 59.032 158.277 58.56 158.437 58.016C158.597 57.472 158.677 56.864 158.677 56.192C158.677 55.52 158.597 54.912 158.437 54.368C158.277 53.808 158.045 53.328 157.741 52.928C157.453 52.528 157.101 52.224 156.685 52.016C156.269 51.792 155.813 51.68 155.317 51.68C154.821 51.68 154.365 51.792 153.949 52.016C153.533 52.224 153.173 52.528 152.869 52.928C152.581 53.328 152.357 53.808 152.197 54.368C152.037 54.912 151.957 55.52 151.957 56.192C151.957 56.864 152.037 57.472 152.197 58.016C152.357 58.56 152.581 59.032 152.869 59.432C153.173 59.816 153.533 60.12 153.949 60.344C154.365 60.552 154.821 60.656 155.317 60.656ZM170.441 62L167.201 50.336H169.217L170.945 57.08C171.073 57.64 171.193 58.184 171.305 58.712C171.417 59.24 171.529 59.776 171.641 60.32H171.737C171.865 59.776 171.993 59.24 172.121 58.712C172.249 58.168 172.385 57.624 172.529 57.08L174.329 50.336H176.249L178.073 57.08C178.217 57.64 178.353 58.184 178.481 58.712C178.625 59.24 178.761 59.776 178.889 60.32H178.985C179.113 59.776 179.233 59.24 179.345 58.712C179.457 58.184 179.577 57.64 179.705 57.08L181.409 50.336H183.281L180.161 62H177.761L176.081 55.736C175.937 55.176 175.801 54.624 175.673 54.08C175.561 53.536 175.433 52.968 175.289 52.376H175.193C175.065 52.968 174.937 53.544 174.809 54.104C174.681 54.648 174.537 55.2 174.377 55.76L172.745 62H170.441ZM185.82 62V50.336H187.788V62H185.82ZM186.828 47.936C186.444 47.936 186.116 47.816 185.844 47.576C185.588 47.336 185.46 47.032 185.46 46.664C185.46 46.28 185.588 45.976 185.844 45.752C186.116 45.512 186.444 45.392 186.828 45.392C187.212 45.392 187.532 45.512 187.788 45.752C188.06 45.976 188.196 46.28 188.196 46.664C188.196 47.032 188.06 47.336 187.788 47.576C187.532 47.816 187.212 47.936 186.828 47.936ZM195.398 62.288C194.774 62.288 194.246 62.192 193.814 62C193.398 61.808 193.054 61.544 192.782 61.208C192.526 60.872 192.342 60.464 192.23 59.984C192.118 59.504 192.062 58.976 192.062 58.4V51.944H190.334V50.456L192.158 50.336L192.398 47.072H194.054V50.336H197.198V51.944H194.054V58.424C194.054 59.144 194.182 59.704 194.438 60.104C194.71 60.488 195.182 60.68 195.854 60.68C196.062 60.68 196.286 60.648 196.526 60.584C196.766 60.52 196.982 60.448 197.174 60.368L197.558 61.856C197.238 61.968 196.886 62.064 196.502 62.144C196.134 62.24 195.766 62.288 195.398 62.288ZM199.835 62V44.912H201.803V49.568L201.731 51.968C202.291 51.44 202.875 50.992 203.483 50.624C204.091 50.24 204.803 50.048 205.619 50.048C206.851 50.048 207.747 50.432 208.307 51.2C208.883 51.968 209.171 53.104 209.171 54.608V62H207.203V54.872C207.203 53.768 207.027 52.976 206.675 52.496C206.323 52 205.763 51.752 204.995 51.752C204.387 51.752 203.851 51.904 203.387 52.208C202.923 52.512 202.395 52.96 201.803 53.552V62H199.835ZM221.367 62.288C220.743 62.288 220.215 62.192 219.783 62C219.367 61.808 219.023 61.544 218.751 61.208C218.495 60.872 218.311 60.464 218.199 59.984C218.087 59.504 218.031 58.976 218.031 58.4V51.944H216.303V50.456L218.127 50.336L218.367 47.072H220.023V50.336H223.167V51.944H220.023V58.424C220.023 59.144 220.151 59.704 220.407 60.104C220.679 60.488 221.151 60.68 221.823 60.68C222.031 60.68 222.255 60.648 222.495 60.584C222.735 60.52 222.951 60.448 223.143 60.368L223.527 61.856C223.207 61.968 222.855 62.064 222.471 62.144C222.103 62.24 221.735 62.288 221.367 62.288ZM225.804 62V44.912H227.772V49.568L227.7 51.968C228.26 51.44 228.844 50.992 229.452 50.624C230.06 50.24 230.772 50.048 231.588 50.048C232.82 50.048 233.716 50.432 234.276 51.2C234.852 51.968 235.14 53.104 235.14 54.608V62H233.172V54.872C233.172 53.768 232.996 52.976 232.644 52.496C232.292 52 231.732 51.752 230.964 51.752C230.356 51.752 229.82 51.904 229.356 52.208C228.892 52.512 228.364 52.96 227.772 53.552V62H225.804ZM243.587 62.288C242.803 62.288 242.067 62.152 241.379 61.88C240.707 61.592 240.115 61.192 239.603 60.68C239.107 60.152 238.715 59.512 238.427 58.76C238.139 58.008 237.995 57.152 237.995 56.192C237.995 55.232 238.139 54.376 238.427 53.624C238.731 52.856 239.123 52.208 239.603 51.68C240.099 51.152 240.659 50.752 241.283 50.48C241.907 50.192 242.555 50.048 243.227 50.048C243.963 50.048 244.619 50.176 245.195 50.432C245.787 50.688 246.275 51.056 246.659 51.536C247.059 52.016 247.363 52.592 247.571 53.264C247.779 53.936 247.883 54.688 247.883 55.52C247.883 55.728 247.875 55.936 247.859 56.144C247.859 56.336 247.843 56.504 247.811 56.648H239.939C240.019 57.896 240.403 58.888 241.091 59.624C241.795 60.344 242.707 60.704 243.827 60.704C244.387 60.704 244.899 60.624 245.363 60.464C245.843 60.288 246.299 60.064 246.731 59.792L247.427 61.088C246.915 61.408 246.347 61.688 245.723 61.928C245.099 62.168 244.387 62.288 243.587 62.288ZM239.915 55.232H246.155C246.155 54.048 245.899 53.152 245.387 52.544C244.891 51.92 244.187 51.608 243.275 51.608C242.859 51.608 242.459 51.688 242.075 51.848C241.707 52.008 241.371 52.248 241.067 52.568C240.763 52.872 240.507 53.248 240.299 53.696C240.107 54.144 239.979 54.656 239.915 55.232ZM255.57 62V50.336H257.202L257.37 52.448H257.442C257.842 51.712 258.322 51.128 258.882 50.696C259.458 50.264 260.082 50.048 260.754 50.048C261.218 50.048 261.634 50.128 262.002 50.288L261.618 52.016C261.426 51.952 261.25 51.904 261.09 51.872C260.93 51.84 260.73 51.824 260.49 51.824C259.994 51.824 259.474 52.024 258.93 52.424C258.402 52.824 257.938 53.52 257.538 54.512V62H255.57ZM268.384 62.288C267.6 62.288 266.864 62.152 266.176 61.88C265.504 61.592 264.912 61.192 264.4 60.68C263.904 60.152 263.512 59.512 263.224 58.76C262.936 58.008 262.792 57.152 262.792 56.192C262.792 55.232 262.936 54.376 263.224 53.624C263.528 52.856 263.92 52.208 264.4 51.68C264.896 51.152 265.456 50.752 266.08 50.48C266.704 50.192 267.352 50.048 268.023 50.048C268.76 50.048 269.416 50.176 269.992 50.432C270.584 50.688 271.072 51.056 271.456 51.536C271.856 52.016 272.16 52.592 272.368 53.264C272.576 53.936 272.68 54.688 272.68 55.52C272.68 55.728 272.672 55.936 272.656 56.144C272.656 56.336 272.64 56.504 272.608 56.648H264.736C264.816 57.896 265.2 58.888 265.888 59.624C266.592 60.344 267.504 60.704 268.624 60.704C269.184 60.704 269.696 60.624 270.16 60.464C270.64 60.288 271.096 60.064 271.528 59.792L272.224 61.088C271.712 61.408 271.144 61.688 270.52 61.928C269.896 62.168 269.184 62.288 268.384 62.288ZM264.712 55.232H270.952C270.952 54.048 270.696 53.152 270.184 52.544C269.688 51.92 268.984 51.608 268.072 51.608C267.656 51.608 267.256 51.688 266.872 51.848C266.504 52.008 266.168 52.248 265.864 52.568C265.56 52.872 265.304 53.248 265.096 53.696C264.904 54.144 264.776 54.656 264.712 55.232ZM279.263 67.376C278.543 67.376 277.887 67.304 277.295 67.16C276.703 67.032 276.191 66.832 275.759 66.56C275.343 66.288 275.015 65.96 274.775 65.576C274.551 65.192 274.439 64.744 274.439 64.232C274.439 63.736 274.591 63.264 274.895 62.816C275.199 62.368 275.615 61.96 276.143 61.592V61.496C275.855 61.32 275.607 61.08 275.399 60.776C275.207 60.456 275.111 60.064 275.111 59.6C275.111 59.104 275.247 58.672 275.519 58.304C275.791 57.936 276.079 57.648 276.383 57.44V57.344C275.999 57.024 275.647 56.6 275.327 56.072C275.023 55.528 274.871 54.904 274.871 54.2C274.871 53.56 274.983 52.984 275.207 52.472C275.447 51.96 275.767 51.528 276.167 51.176C276.567 50.808 277.031 50.528 277.559 50.336C278.103 50.144 278.671 50.048 279.263 50.048C279.583 50.048 279.879 50.08 280.151 50.144C280.439 50.192 280.695 50.256 280.919 50.336H284.975V51.848H282.575C282.847 52.12 283.071 52.464 283.247 52.88C283.439 53.296 283.535 53.752 283.535 54.248C283.535 54.872 283.423 55.44 283.199 55.952C282.975 56.448 282.671 56.872 282.287 57.224C281.903 57.56 281.447 57.824 280.919 58.016C280.407 58.208 279.855 58.304 279.263 58.304C278.975 58.304 278.679 58.272 278.375 58.208C278.071 58.128 277.783 58.024 277.511 57.896C277.303 58.072 277.127 58.272 276.983 58.496C276.839 58.704 276.767 58.968 276.767 59.288C276.767 59.656 276.911 59.96 277.199 60.2C277.487 60.44 278.031 60.56 278.831 60.56H281.087C282.447 60.56 283.463 60.784 284.135 61.232C284.823 61.664 285.167 62.368 285.167 63.344C285.167 63.888 285.031 64.4 284.759 64.88C284.487 65.376 284.095 65.808 283.583 66.176C283.071 66.544 282.447 66.832 281.711 67.04C280.991 67.264 280.175 67.376 279.263 67.376ZM279.263 56.984C279.599 56.984 279.911 56.92 280.199 56.792C280.503 56.664 280.767 56.48 280.991 56.24C281.231 56 281.415 55.712 281.543 55.376C281.671 55.024 281.735 54.632 281.735 54.2C281.735 53.336 281.495 52.672 281.015 52.208C280.535 51.728 279.951 51.488 279.263 51.488C278.575 51.488 277.991 51.728 277.511 52.208C277.031 52.672 276.791 53.336 276.791 54.2C276.791 54.632 276.855 55.024 276.983 55.376C277.111 55.712 277.287 56 277.511 56.24C277.751 56.48 278.015 56.664 278.303 56.792C278.607 56.92 278.927 56.984 279.263 56.984ZM279.551 66.008C280.111 66.008 280.615 65.936 281.063 65.792C281.527 65.664 281.919 65.488 282.239 65.264C282.559 65.056 282.807 64.808 282.983 64.52C283.159 64.232 283.247 63.936 283.247 63.632C283.247 63.088 283.047 62.712 282.647 62.504C282.247 62.296 281.663 62.192 280.895 62.192H278.879C278.655 62.192 278.407 62.176 278.135 62.144C277.879 62.128 277.623 62.08 277.367 62C276.951 62.304 276.647 62.624 276.455 62.96C276.263 63.296 276.167 63.632 276.167 63.968C276.167 64.592 276.463 65.088 277.055 65.456C277.663 65.824 278.495 66.008 279.551 66.008ZM290.829 62.288C289.581 62.288 288.669 61.904 288.093 61.136C287.533 60.368 287.253 59.232 287.253 57.728V50.336H289.245V57.464C289.245 58.568 289.413 59.368 289.749 59.864C290.101 60.344 290.661 60.584 291.429 60.584C292.037 60.584 292.573 60.432 293.037 60.128C293.501 59.808 294.013 59.304 294.573 58.616V50.336H296.541V62H294.909L294.741 60.176H294.669C294.125 60.816 293.549 61.328 292.941 61.712C292.349 62.096 291.645 62.288 290.829 62.288ZM302.564 62.288C301.812 62.288 301.276 62.064 300.956 61.616C300.636 61.168 300.476 60.512 300.476 59.648V44.912H302.444V59.792C302.444 60.112 302.5 60.336 302.612 60.464C302.724 60.592 302.852 60.656 302.996 60.656C303.06 60.656 303.116 60.656 303.164 60.656C303.228 60.656 303.316 60.64 303.428 60.608L303.692 62.096C303.564 62.16 303.412 62.208 303.236 62.24C303.06 62.272 302.836 62.288 302.564 62.288ZM309.281 62.288C308.305 62.288 307.489 62 306.833 61.424C306.193 60.848 305.873 60.032 305.873 58.976C305.873 57.696 306.441 56.72 307.577 56.048C308.713 55.36 310.529 54.88 313.025 54.608C313.025 54.24 312.985 53.88 312.905 53.528C312.841 53.176 312.721 52.864 312.545 52.592C312.369 52.32 312.121 52.104 311.801 51.944C311.497 51.768 311.105 51.68 310.625 51.68C309.953 51.68 309.321 51.808 308.729 52.064C308.137 52.32 307.609 52.608 307.145 52.928L306.377 51.56C306.921 51.208 307.585 50.872 308.369 50.552C309.153 50.216 310.017 50.048 310.961 50.048C312.385 50.048 313.417 50.488 314.057 51.368C314.697 52.232 315.017 53.392 315.017 54.848V62H313.385L313.217 60.608H313.145C312.585 61.072 311.985 61.472 311.345 61.808C310.705 62.128 310.017 62.288 309.281 62.288ZM309.857 60.704C310.417 60.704 310.945 60.576 311.441 60.32C311.937 60.048 312.465 59.656 313.025 59.144V55.904C312.049 56.032 311.225 56.184 310.553 56.36C309.897 56.536 309.361 56.744 308.945 56.984C308.545 57.224 308.249 57.504 308.057 57.824C307.881 58.128 307.793 58.464 307.793 58.832C307.793 59.504 307.993 59.984 308.393 60.272C308.793 60.56 309.281 60.704 309.857 60.704ZM318.687 62V50.336H320.319L320.487 52.448H320.559C320.959 51.712 321.439 51.128 321.999 50.696C322.575 50.264 323.199 50.048 323.871 50.048C324.335 50.048 324.751 50.128 325.119 50.288L324.735 52.016C324.543 51.952 324.367 51.904 324.207 51.872C324.047 51.84 323.847 51.824 323.607 51.824C323.111 51.824 322.591 52.024 322.047 52.424C321.519 52.824 321.055 53.52 320.655 54.512V62H318.687ZM331.812 62V50.336H333.444L333.612 52.016H333.684C334.196 51.456 334.748 50.992 335.34 50.624C335.948 50.24 336.604 50.048 337.308 50.048C338.204 50.048 338.9 50.248 339.396 50.648C339.908 51.032 340.284 51.576 340.524 52.28C341.132 51.608 341.74 51.072 342.348 50.672C342.972 50.256 343.644 50.048 344.364 50.048C345.564 50.048 346.452 50.432 347.028 51.2C347.62 51.968 347.916 53.104 347.916 54.608V62H345.948V54.872C345.948 53.768 345.772 52.976 345.42 52.496C345.068 52 344.524 51.752 343.788 51.752C342.908 51.752 341.932 52.352 340.86 53.552V62H338.892V54.872C338.892 53.768 338.716 52.976 338.364 52.496C338.012 52 337.46 51.752 336.708 51.752C335.828 51.752 334.852 52.352 333.78 53.552V62H331.812ZM351.71 62V50.336H353.678V62H351.71ZM352.718 47.936C352.334 47.936 352.006 47.816 351.734 47.576C351.478 47.336 351.35 47.032 351.35 46.664C351.35 46.28 351.478 45.976 351.734 45.752C352.006 45.512 352.334 45.392 352.718 45.392C353.102 45.392 353.422 45.512 353.678 45.752C353.95 45.976 354.086 46.28 354.086 46.664C354.086 47.032 353.95 47.336 353.678 47.576C353.422 47.816 353.102 47.936 352.718 47.936ZM359.704 62.288C358.952 62.288 358.416 62.064 358.096 61.616C357.776 61.168 357.616 60.512 357.616 59.648V44.912H359.584V59.792C359.584 60.112 359.64 60.336 359.752 60.464C359.864 60.592 359.992 60.656 360.136 60.656C360.2 60.656 360.256 60.656 360.304 60.656C360.368 60.656 360.456 60.64 360.568 60.608L360.832 62.096C360.704 62.16 360.552 62.208 360.376 62.24C360.2 62.272 359.976 62.288 359.704 62.288ZM363.734 62V44.912H365.678V56.48H365.75L370.718 50.336H372.902L368.99 55.016L373.43 62H371.27L367.862 56.384L365.678 58.928V62H363.734ZM376.953 62.288C376.553 62.288 376.209 62.152 375.921 61.88C375.649 61.592 375.513 61.232 375.513 60.8C375.513 60.336 375.649 59.968 375.921 59.696C376.209 59.408 376.553 59.264 376.953 59.264C377.337 59.264 377.665 59.408 377.937 59.696C378.225 59.968 378.369 60.336 378.369 60.8C378.369 61.232 378.225 61.592 377.937 61.88C377.665 62.152 377.337 62.288 376.953 62.288ZM136.16 98V82.256H138.152V88.856H145.472V82.256H147.488V98H145.472V90.584H138.152V98H136.16ZM156.16 98.288C155.44 98.288 154.752 98.152 154.096 97.88C153.456 97.608 152.888 97.216 152.392 96.704C151.896 96.176 151.496 95.536 151.192 94.784C150.904 94.016 150.76 93.152 150.76 92.192C150.76 91.216 150.904 90.352 151.192 89.6C151.496 88.832 151.896 88.184 152.392 87.656C152.888 87.128 153.456 86.728 154.096 86.456C154.752 86.184 155.44 86.048 156.16 86.048C156.88 86.048 157.56 86.184 158.2 86.456C158.856 86.728 159.432 87.128 159.928 87.656C160.424 88.184 160.816 88.832 161.104 89.6C161.408 90.352 161.56 91.216 161.56 92.192C161.56 93.152 161.408 94.016 161.104 94.784C160.816 95.536 160.424 96.176 159.928 96.704C159.432 97.216 158.856 97.608 158.2 97.88C157.56 98.152 156.88 98.288 156.16 98.288ZM156.16 96.656C156.656 96.656 157.112 96.552 157.528 96.344C157.944 96.12 158.296 95.816 158.584 95.432C158.888 95.032 159.12 94.56 159.28 94.016C159.44 93.472 159.52 92.864 159.52 92.192C159.52 91.52 159.44 90.912 159.28 90.368C159.12 89.808 158.888 89.328 158.584 88.928C158.296 88.528 157.944 88.224 157.528 88.016C157.112 87.792 156.656 87.68 156.16 87.68C155.664 87.68 155.208 87.792 154.792 88.016C154.376 88.224 154.016 88.528 153.712 88.928C153.424 89.328 153.2 89.808 153.04 90.368C152.88 90.912 152.8 91.52 152.8 92.192C152.8 92.864 152.88 93.472 153.04 94.016C153.2 94.56 153.424 95.032 153.712 95.432C154.016 95.816 154.376 96.12 154.792 96.344C155.208 96.552 155.664 96.656 156.16 96.656ZM164.632 98V86.336H166.264L166.432 88.016H166.504C167.064 87.456 167.648 86.992 168.256 86.624C168.88 86.24 169.6 86.048 170.416 86.048C171.648 86.048 172.544 86.432 173.104 87.2C173.68 87.968 173.968 89.104 173.968 90.608V98H172V90.872C172 89.768 171.824 88.976 171.472 88.496C171.12 88 170.56 87.752 169.792 87.752C169.184 87.752 168.648 87.904 168.184 88.208C167.72 88.512 167.192 88.96 166.6 89.552V98H164.632ZM182.485 98.288C181.701 98.288 180.965 98.152 180.277 97.88C179.605 97.592 179.013 97.192 178.501 96.68C178.005 96.152 177.613 95.512 177.325 94.76C177.037 94.008 176.893 93.152 176.893 92.192C176.893 91.232 177.037 90.376 177.325 89.624C177.629 88.856 178.021 88.208 178.501 87.68C178.997 87.152 179.557 86.752 180.181 86.48C180.805 86.192 181.453 86.048 182.125 86.048C182.861 86.048 183.517 86.176 184.093 86.432C184.685 86.688 185.173 87.056 185.557 87.536C185.957 88.016 186.261 88.592 186.469 89.264C186.677 89.936 186.781 90.688 186.781 91.52C186.781 91.728 186.773 91.936 186.757 92.144C186.757 92.336 186.741 92.504 186.709 92.648H178.837C178.917 93.896 179.301 94.888 179.989 95.624C180.693 96.344 181.605 96.704 182.725 96.704C183.285 96.704 183.797 96.624 184.261 96.464C184.741 96.288 185.197 96.064 185.629 95.792L186.325 97.088C185.813 97.408 185.245 97.688 184.621 97.928C183.997 98.168 183.285 98.288 182.485 98.288ZM178.813 91.232H185.053C185.053 90.048 184.797 89.152 184.285 88.544C183.789 87.92 183.085 87.608 182.173 87.608C181.757 87.608 181.357 87.688 180.973 87.848C180.605 88.008 180.269 88.248 179.965 88.568C179.661 88.872 179.405 89.248 179.197 89.696C179.005 90.144 178.877 90.656 178.813 91.232ZM192.711 98.288C191.879 98.288 191.087 98.136 190.335 97.832C189.583 97.528 188.927 97.144 188.367 96.68L189.351 95.36C189.863 95.776 190.383 96.112 190.911 96.368C191.455 96.624 192.079 96.752 192.783 96.752C193.551 96.752 194.127 96.576 194.511 96.224C194.895 95.872 195.087 95.44 195.087 94.928C195.087 94.624 195.007 94.36 194.847 94.136C194.687 93.912 194.479 93.72 194.223 93.56C193.983 93.384 193.703 93.232 193.383 93.104C193.063 92.976 192.743 92.848 192.423 92.72C192.007 92.576 191.591 92.416 191.175 92.24C190.759 92.048 190.383 91.824 190.047 91.568C189.727 91.296 189.463 90.984 189.255 90.632C189.047 90.28 188.943 89.856 188.943 89.36C188.943 88.896 189.031 88.464 189.207 88.064C189.399 87.648 189.663 87.296 189.999 87.008C190.351 86.704 190.775 86.472 191.271 86.312C191.767 86.136 192.327 86.048 192.951 86.048C193.687 86.048 194.359 86.176 194.967 86.432C195.591 86.688 196.127 87 196.575 87.368L195.639 88.616C195.239 88.312 194.823 88.064 194.391 87.872C193.959 87.68 193.487 87.584 192.975 87.584C192.239 87.584 191.695 87.752 191.343 88.088C191.007 88.424 190.839 88.816 190.839 89.264C190.839 89.536 190.911 89.776 191.055 89.984C191.199 90.176 191.391 90.352 191.631 90.512C191.871 90.656 192.143 90.792 192.447 90.92C192.767 91.032 193.095 91.152 193.431 91.28C193.847 91.44 194.263 91.608 194.679 91.784C195.111 91.96 195.495 92.184 195.831 92.456C196.167 92.712 196.439 93.032 196.647 93.416C196.871 93.8 196.983 94.264 196.983 94.808C196.983 95.288 196.887 95.736 196.695 96.152C196.519 96.568 196.247 96.936 195.879 97.256C195.527 97.576 195.079 97.824 194.535 98C194.007 98.192 193.399 98.288 192.711 98.288ZM202.921 98.288C202.297 98.288 201.769 98.192 201.337 98C200.921 97.808 200.577 97.544 200.305 97.208C200.049 96.872 199.865 96.464 199.753 95.984C199.641 95.504 199.585 94.976 199.585 94.4V87.944H197.857V86.456L199.681 86.336L199.921 83.072H201.577V86.336H204.721V87.944H201.577V94.424C201.577 95.144 201.705 95.704 201.961 96.104C202.233 96.488 202.705 96.68 203.377 96.68C203.585 96.68 203.809 96.648 204.049 96.584C204.289 96.52 204.505 96.448 204.697 96.368L205.081 97.856C204.761 97.968 204.409 98.064 204.025 98.144C203.657 98.24 203.289 98.288 202.921 98.288ZM209.447 98.288C208.695 98.288 208.159 98.064 207.839 97.616C207.519 97.168 207.359 96.512 207.359 95.648V80.912H209.327V95.792C209.327 96.112 209.383 96.336 209.495 96.464C209.607 96.592 209.735 96.656 209.879 96.656C209.943 96.656 209.999 96.656 210.047 96.656C210.111 96.656 210.199 96.64 210.311 96.608L210.575 98.096C210.447 98.16 210.295 98.208 210.119 98.24C209.943 98.272 209.719 98.288 209.447 98.288ZM213.668 103.016C213.396 103.016 213.148 102.992 212.924 102.944C212.7 102.912 212.492 102.856 212.3 102.776L212.684 101.216C212.812 101.248 212.956 101.28 213.116 101.312C213.276 101.36 213.428 101.384 213.572 101.384C214.244 101.384 214.788 101.144 215.204 100.664C215.636 100.2 215.972 99.608 216.212 98.888L216.476 98.024L211.796 86.336H213.836L216.212 92.792C216.388 93.304 216.572 93.848 216.764 94.424C216.972 94.984 217.164 95.536 217.34 96.08H217.436C217.612 95.552 217.78 95 217.94 94.424C218.1 93.848 218.26 93.304 218.42 92.792L220.508 86.336H222.428L218.036 98.96C217.828 99.536 217.596 100.072 217.34 100.568C217.084 101.064 216.78 101.488 216.428 101.84C216.076 102.208 215.676 102.496 215.228 102.704C214.78 102.912 214.26 103.016 213.668 103.016ZM223.475 102.08L222.995 100.928C223.683 100.624 224.219 100.216 224.603 99.704C224.987 99.208 225.171 98.64 225.155 98C225.107 98.016 225.027 98.024 224.915 98.024C224.531 98.024 224.195 97.912 223.907 97.688C223.635 97.448 223.499 97.104 223.499 96.656C223.499 96.224 223.643 95.888 223.931 95.648C224.219 95.392 224.563 95.264 224.963 95.264C225.475 95.264 225.875 95.472 226.163 95.888C226.467 96.304 226.619 96.872 226.619 97.592C226.619 98.632 226.339 99.536 225.779 100.304C225.219 101.072 224.451 101.664 223.475 102.08ZM234.616 98V80.912H236.584V85.568L236.512 87.968C237.072 87.44 237.656 86.992 238.264 86.624C238.872 86.24 239.584 86.048 240.4 86.048C241.632 86.048 242.528 86.432 243.088 87.2C243.664 87.968 243.952 89.104 243.952 90.608V98H241.984V90.872C241.984 89.768 241.808 88.976 241.456 88.496C241.104 88 240.544 87.752 239.776 87.752C239.168 87.752 238.632 87.904 238.168 88.208C237.704 88.512 237.176 88.96 236.584 89.552V98H234.616ZM252.399 98.288C251.615 98.288 250.879 98.152 250.191 97.88C249.519 97.592 248.927 97.192 248.415 96.68C247.919 96.152 247.527 95.512 247.239 94.76C246.951 94.008 246.807 93.152 246.807 92.192C246.807 91.232 246.951 90.376 247.239 89.624C247.543 88.856 247.935 88.208 248.415 87.68C248.911 87.152 249.471 86.752 250.095 86.48C250.719 86.192 251.367 86.048 252.039 86.048C252.775 86.048 253.431 86.176 254.007 86.432C254.599 86.688 255.087 87.056 255.471 87.536C255.871 88.016 256.175 88.592 256.383 89.264C256.591 89.936 256.695 90.688 256.695 91.52C256.695 91.728 256.687 91.936 256.671 92.144C256.671 92.336 256.655 92.504 256.623 92.648H248.751C248.831 93.896 249.215 94.888 249.903 95.624C250.607 96.344 251.519 96.704 252.639 96.704C253.199 96.704 253.711 96.624 254.175 96.464C254.655 96.288 255.111 96.064 255.543 95.792L256.239 97.088C255.727 97.408 255.159 97.688 254.535 97.928C253.911 98.168 253.199 98.288 252.399 98.288ZM248.727 91.232H254.967C254.967 90.048 254.711 89.152 254.199 88.544C253.703 87.92 252.999 87.608 252.087 87.608C251.671 87.608 251.271 87.688 250.887 87.848C250.519 88.008 250.183 88.248 249.879 88.568C249.575 88.872 249.319 89.248 249.111 89.696C248.919 90.144 248.791 90.656 248.727 91.232ZM268.366 98.288C266.894 98.288 265.718 97.76 264.838 96.704C263.974 95.648 263.542 94.144 263.542 92.192C263.542 91.248 263.678 90.4 263.95 89.648C264.238 88.88 264.614 88.232 265.078 87.704C265.542 87.176 266.078 86.768 266.686 86.48C267.294 86.192 267.934 86.048 268.606 86.048C269.278 86.048 269.862 86.168 270.358 86.408C270.854 86.648 271.358 86.976 271.87 87.392L271.774 85.4V80.912H273.766V98H272.134L271.966 96.632H271.894C271.43 97.08 270.894 97.472 270.286 97.808C269.694 98.128 269.054 98.288 268.366 98.288ZM268.798 96.632C269.342 96.632 269.854 96.504 270.334 96.248C270.814 95.976 271.294 95.568 271.774 95.024V88.928C271.278 88.48 270.798 88.168 270.334 87.992C269.886 87.8 269.422 87.704 268.942 87.704C268.478 87.704 268.038 87.816 267.622 88.04C267.222 88.248 266.87 88.552 266.566 88.952C266.262 89.336 266.022 89.8 265.846 90.344C265.67 90.888 265.582 91.496 265.582 92.168C265.582 93.576 265.862 94.672 266.422 95.456C266.982 96.24 267.774 96.632 268.798 96.632ZM282.423 98.288C281.639 98.288 280.903 98.152 280.215 97.88C279.543 97.592 278.951 97.192 278.439 96.68C277.943 96.152 277.551 95.512 277.263 94.76C276.975 94.008 276.831 93.152 276.831 92.192C276.831 91.232 276.975 90.376 277.263 89.624C277.567 88.856 277.959 88.208 278.439 87.68C278.935 87.152 279.495 86.752 280.119 86.48C280.743 86.192 281.391 86.048 282.063 86.048C282.799 86.048 283.455 86.176 284.031 86.432C284.623 86.688 285.111 87.056 285.495 87.536C285.895 88.016 286.199 88.592 286.407 89.264C286.615 89.936 286.719 90.688 286.719 91.52C286.719 91.728 286.711 91.936 286.695 92.144C286.695 92.336 286.679 92.504 286.647 92.648H278.775C278.855 93.896 279.239 94.888 279.927 95.624C280.631 96.344 281.543 96.704 282.663 96.704C283.223 96.704 283.735 96.624 284.199 96.464C284.679 96.288 285.135 96.064 285.567 95.792L286.263 97.088C285.751 97.408 285.183 97.688 284.559 97.928C283.935 98.168 283.223 98.288 282.423 98.288ZM278.751 91.232H284.991C284.991 90.048 284.735 89.152 284.223 88.544C283.727 87.92 283.023 87.608 282.111 87.608C281.695 87.608 281.295 87.688 280.911 87.848C280.543 88.008 280.207 88.248 279.903 88.568C279.599 88.872 279.343 89.248 279.135 89.696C278.943 90.144 278.815 90.656 278.751 91.232ZM292.649 98.288C291.817 98.288 291.025 98.136 290.273 97.832C289.521 97.528 288.865 97.144 288.305 96.68L289.289 95.36C289.801 95.776 290.321 96.112 290.849 96.368C291.393 96.624 292.017 96.752 292.721 96.752C293.489 96.752 294.065 96.576 294.449 96.224C294.833 95.872 295.025 95.44 295.025 94.928C295.025 94.624 294.945 94.36 294.785 94.136C294.625 93.912 294.417 93.72 294.161 93.56C293.921 93.384 293.641 93.232 293.321 93.104C293.001 92.976 292.681 92.848 292.361 92.72C291.945 92.576 291.529 92.416 291.113 92.24C290.697 92.048 290.321 91.824 289.985 91.568C289.665 91.296 289.401 90.984 289.193 90.632C288.985 90.28 288.881 89.856 288.881 89.36C288.881 88.896 288.969 88.464 289.145 88.064C289.337 87.648 289.601 87.296 289.937 87.008C290.289 86.704 290.713 86.472 291.209 86.312C291.705 86.136 292.265 86.048 292.889 86.048C293.625 86.048 294.297 86.176 294.905 86.432C295.529 86.688 296.065 87 296.513 87.368L295.577 88.616C295.177 88.312 294.761 88.064 294.329 87.872C293.897 87.68 293.425 87.584 292.913 87.584C292.177 87.584 291.633 87.752 291.281 88.088C290.945 88.424 290.777 88.816 290.777 89.264C290.777 89.536 290.849 89.776 290.993 89.984C291.137 90.176 291.329 90.352 291.569 90.512C291.809 90.656 292.081 90.792 292.385 90.92C292.705 91.032 293.033 91.152 293.369 91.28C293.785 91.44 294.201 91.608 294.617 91.784C295.049 91.96 295.433 92.184 295.769 92.456C296.105 92.712 296.377 93.032 296.585 93.416C296.809 93.8 296.921 94.264 296.921 94.808C296.921 95.288 296.825 95.736 296.633 96.152C296.457 96.568 296.185 96.936 295.817 97.256C295.465 97.576 295.017 97.824 294.473 98C293.945 98.192 293.337 98.288 292.649 98.288ZM304.384 98.288C303.6 98.288 302.864 98.152 302.176 97.88C301.504 97.592 300.912 97.192 300.4 96.68C299.904 96.152 299.512 95.512 299.224 94.76C298.936 94.008 298.792 93.152 298.792 92.192C298.792 91.232 298.936 90.376 299.224 89.624C299.528 88.856 299.92 88.208 300.4 87.68C300.896 87.152 301.456 86.752 302.08 86.48C302.704 86.192 303.352 86.048 304.023 86.048C304.76 86.048 305.416 86.176 305.992 86.432C306.584 86.688 307.072 87.056 307.456 87.536C307.856 88.016 308.16 88.592 308.368 89.264C308.576 89.936 308.68 90.688 308.68 91.52C308.68 91.728 308.672 91.936 308.656 92.144C308.656 92.336 308.64 92.504 308.608 92.648H300.736C300.816 93.896 301.2 94.888 301.888 95.624C302.592 96.344 303.504 96.704 304.624 96.704C305.184 96.704 305.696 96.624 306.16 96.464C306.64 96.288 307.096 96.064 307.528 95.792L308.224 97.088C307.712 97.408 307.144 97.688 306.52 97.928C305.896 98.168 305.184 98.288 304.384 98.288ZM300.712 91.232H306.952C306.952 90.048 306.696 89.152 306.184 88.544C305.688 87.92 304.984 87.608 304.072 87.608C303.656 87.608 303.256 87.688 302.872 87.848C302.504 88.008 302.168 88.248 301.864 88.568C301.56 88.872 301.304 89.248 301.096 89.696C300.904 90.144 300.776 90.656 300.712 91.232ZM311.562 98V86.336H313.194L313.362 88.448H313.434C313.834 87.712 314.314 87.128 314.874 86.696C315.45 86.264 316.074 86.048 316.746 86.048C317.21 86.048 317.626 86.128 317.994 86.288L317.61 88.016C317.418 87.952 317.242 87.904 317.082 87.872C316.922 87.84 316.722 87.824 316.482 87.824C315.986 87.824 315.466 88.024 314.922 88.424C314.394 88.824 313.93 89.52 313.53 90.512V98H311.562ZM323.011 98L318.811 86.336H320.851L323.059 92.96C323.235 93.536 323.411 94.112 323.587 94.688C323.779 95.264 323.963 95.832 324.139 96.392H324.235C324.411 95.832 324.587 95.264 324.763 94.688C324.939 94.112 325.115 93.536 325.291 92.96L327.499 86.336H329.443L325.315 98H323.011ZM336.329 98.288C335.545 98.288 334.809 98.152 334.121 97.88C333.449 97.592 332.857 97.192 332.345 96.68C331.849 96.152 331.457 95.512 331.169 94.76C330.881 94.008 330.737 93.152 330.737 92.192C330.737 91.232 330.881 90.376 331.169 89.624C331.473 88.856 331.865 88.208 332.345 87.68C332.841 87.152 333.401 86.752 334.025 86.48C334.649 86.192 335.297 86.048 335.969 86.048C336.705 86.048 337.361 86.176 337.937 86.432C338.529 86.688 339.017 87.056 339.401 87.536C339.801 88.016 340.105 88.592 340.313 89.264C340.521 89.936 340.625 90.688 340.625 91.52C340.625 91.728 340.617 91.936 340.601 92.144C340.601 92.336 340.585 92.504 340.553 92.648H332.681C332.761 93.896 333.145 94.888 333.833 95.624C334.537 96.344 335.449 96.704 336.569 96.704C337.129 96.704 337.641 96.624 338.105 96.464C338.585 96.288 339.041 96.064 339.473 95.792L340.169 97.088C339.657 97.408 339.089 97.688 338.465 97.928C337.841 98.168 337.129 98.288 336.329 98.288ZM332.657 91.232H338.897C338.897 90.048 338.641 89.152 338.129 88.544C337.633 87.92 336.929 87.608 336.017 87.608C335.601 87.608 335.201 87.688 334.817 87.848C334.449 88.008 334.113 88.248 333.809 88.568C333.505 88.872 333.249 89.248 333.041 89.696C332.849 90.144 332.721 90.656 332.657 91.232ZM346.555 98.288C345.723 98.288 344.931 98.136 344.179 97.832C343.427 97.528 342.771 97.144 342.211 96.68L343.195 95.36C343.707 95.776 344.227 96.112 344.755 96.368C345.299 96.624 345.923 96.752 346.627 96.752C347.395 96.752 347.971 96.576 348.355 96.224C348.739 95.872 348.931 95.44 348.931 94.928C348.931 94.624 348.851 94.36 348.691 94.136C348.531 93.912 348.323 93.72 348.067 93.56C347.827 93.384 347.547 93.232 347.227 93.104C346.907 92.976 346.587 92.848 346.267 92.72C345.851 92.576 345.435 92.416 345.019 92.24C344.603 92.048 344.227 91.824 343.891 91.568C343.571 91.296 343.307 90.984 343.099 90.632C342.891 90.28 342.787 89.856 342.787 89.36C342.787 88.896 342.875 88.464 343.051 88.064C343.243 87.648 343.507 87.296 343.843 87.008C344.195 86.704 344.619 86.472 345.115 86.312C345.611 86.136 346.171 86.048 346.795 86.048C347.531 86.048 348.203 86.176 348.811 86.432C349.435 86.688 349.971 87 350.419 87.368L349.483 88.616C349.083 88.312 348.667 88.064 348.235 87.872C347.803 87.68 347.331 87.584 346.819 87.584C346.083 87.584 345.539 87.752 345.187 88.088C344.851 88.424 344.683 88.816 344.683 89.264C344.683 89.536 344.755 89.776 344.899 89.984C345.043 90.176 345.235 90.352 345.475 90.512C345.715 90.656 345.987 90.792 346.291 90.92C346.611 91.032 346.939 91.152 347.275 91.28C347.691 91.44 348.107 91.608 348.523 91.784C348.955 91.96 349.339 92.184 349.675 92.456C350.011 92.712 350.283 93.032 350.491 93.416C350.715 93.8 350.827 94.264 350.827 94.808C350.827 95.288 350.731 95.736 350.539 96.152C350.363 96.568 350.091 96.936 349.723 97.256C349.371 97.576 348.923 97.824 348.379 98C347.851 98.192 347.243 98.288 346.555 98.288ZM358.366 98V86.336H360.334V98H358.366ZM359.374 83.936C358.99 83.936 358.662 83.816 358.39 83.576C358.134 83.336 358.006 83.032 358.006 82.664C358.006 82.28 358.134 81.976 358.39 81.752C358.662 81.512 358.99 81.392 359.374 81.392C359.758 81.392 360.078 81.512 360.334 81.752C360.606 81.976 360.742 82.28 360.742 82.664C360.742 83.032 360.606 83.336 360.334 83.576C360.078 83.816 359.758 83.936 359.374 83.936ZM367.945 98.288C367.321 98.288 366.793 98.192 366.361 98C365.945 97.808 365.601 97.544 365.329 97.208C365.073 96.872 364.889 96.464 364.777 95.984C364.665 95.504 364.609 94.976 364.609 94.4V87.944H362.881V86.456L364.705 86.336L364.945 83.072H366.601V86.336H369.745V87.944H366.601V94.424C366.601 95.144 366.729 95.704 366.985 96.104C367.257 96.488 367.729 96.68 368.401 96.68C368.609 96.68 368.833 96.648 369.073 96.584C369.313 96.52 369.529 96.448 369.721 96.368L370.105 97.856C369.785 97.968 369.433 98.064 369.049 98.144C368.681 98.24 368.313 98.288 367.945 98.288ZM373.578 98.288C373.178 98.288 372.834 98.152 372.546 97.88C372.274 97.592 372.138 97.232 372.138 96.8C372.138 96.336 372.274 95.968 372.546 95.696C372.834 95.408 373.178 95.264 373.578 95.264C373.962 95.264 374.29 95.408 374.562 95.696C374.85 95.968 374.994 96.336 374.994 96.8C374.994 97.232 374.85 97.592 374.562 97.88C374.29 98.152 373.962 98.288 373.578 98.288Z" fill="black"/>
</svg>
